<svg width="326" height="326" viewBox="0 0 326 326" fill="none" xmlns="http://www.w3.org/2000/svg">
<mask id="mask0" mask-type="alpha" maskUnits="userSpaceOnUse" x="0" y="0" width="326" height="326">
<circle cx="163" cy="163" r="163" fill="#E6F9FF"/>
<circle cx="163" cy="163" r="163" stroke="black"/>
</mask>
<g mask="url(#mask0)">
<circle cx="163" cy="163" r="163" fill="#E6F9FF"/>
<circle cx="163" cy="163" r="163" stroke="#333333"/>
<path d="M203.043 250.354C226.079 250.354 244.754 231.68 244.754 208.644C244.754 185.608 226.079 166.933 203.043 166.933C180.007 166.933 161.333 185.608 161.333 208.644C161.333 231.68 180.007 250.354 203.043 250.354Z" fill="#918291"/>
<path d="M203.043 250.354C226.079 250.354 244.754 231.68 244.754 208.644C244.754 185.608 226.079 166.933 203.043 166.933C180.007 166.933 161.333 185.608 161.333 208.644C161.333 231.68 180.007 250.354 203.043 250.354Z" stroke="#333333"/>
<path d="M224.795 173.052C218.462 169.173 211.015 166.934 203.043 166.934C180.007 166.934 161.333 185.608 161.333 208.644C161.333 215.696 163.09 222.334 166.178 228.157C176.628 230.361 187.76 228.514 197.067 222.617C216.236 210.468 223.419 191.848 224.795 173.052Z" fill="#7A6D79"/>
<path d="M224.795 173.052C218.462 169.173 211.015 166.934 203.043 166.934C180.007 166.934 161.333 185.608 161.333 208.644C161.333 215.696 163.09 222.334 166.178 228.157C176.628 230.361 187.76 228.514 197.067 222.617C216.236 210.468 223.419 191.848 224.795 173.052Z" stroke="#333333"/>
<path d="M180.035 52.1736C164.669 53.8011 151.667 62.1815 143.648 74.0441C142.042 76.4206 139.259 77.6698 136.411 77.3268C132.957 76.9109 129.381 76.9606 125.753 77.5375C106.041 80.6723 91.9396 98.7479 93.6653 118.633C95.5283 140.102 114.659 155.733 135.969 153.406C144.199 152.507 151.526 149.054 157.268 143.933C166.775 150.332 178.507 153.536 190.791 152.195C218.643 149.153 238.689 123.92 235.249 96.0211C231.908 68.9222 207.189 49.2974 180.035 52.1736Z" fill="#918291"/>
<path d="M180.035 52.1736C164.669 53.8011 151.667 62.1815 143.648 74.0441C142.042 76.4206 139.259 77.6698 136.411 77.3268C132.957 76.9109 129.381 76.9606 125.753 77.5375C106.041 80.6723 91.9396 98.7479 93.6653 118.633C95.5283 140.102 114.659 155.733 135.969 153.406C144.199 152.507 151.526 149.054 157.268 143.933C166.775 150.332 178.507 153.536 190.791 152.195C218.643 149.153 238.689 123.92 235.249 96.0211C231.908 68.9222 207.189 49.2974 180.035 52.1736Z" stroke="#333333"/>
<path d="M248.038 273.695C245.425 267.601 240.484 262.804 234.316 260.372L228.339 258.015L210.328 258.603L200.201 246.92L190.914 243.258C189.954 242.88 189.132 242.278 188.488 241.529L163.844 238.426L137.919 241.529C137.275 242.278 136.452 242.88 135.493 243.258L126.207 246.92L112.954 257.661L98.0683 258.015L92.0914 260.372C85.9232 262.804 80.9827 267.601 78.3696 273.695C71.8749 288.839 68.5266 305.145 68.5266 321.622C68.5266 324.04 70.4862 326 72.904 326H107.143L164.633 320.485L219.266 326H253.505C255.923 326 257.882 324.04 257.882 321.622C257.881 305.145 254.532 288.839 248.038 273.695Z" fill="#FAF7F7"/>
<path d="M248.038 273.695C245.425 267.601 240.484 262.804 234.316 260.372L228.339 258.015L210.328 258.603L200.201 246.92L190.914 243.258C189.954 242.88 189.132 242.278 188.488 241.529L163.844 238.426L137.919 241.529C137.275 242.278 136.452 242.88 135.493 243.258L126.207 246.92L112.954 257.661L98.0683 258.015L92.0914 260.372C85.9232 262.804 80.9827 267.601 78.3696 273.695C71.8749 288.839 68.5266 305.145 68.5266 321.622C68.5266 324.04 70.4862 326 72.904 326H107.143L164.633 320.485L219.266 326H253.505C255.923 326 257.882 324.04 257.882 321.622C257.881 305.145 254.532 288.839 248.038 273.695Z" stroke="#333333"/>
<path d="M248.038 273.695C245.425 267.601 240.485 262.804 234.316 260.372L228.34 258.015L214.963 258.256L200.201 246.92L190.915 243.258C189.959 242.882 189.131 242.274 188.488 241.529C187.735 240.656 170.436 238.426 170.436 238.426V243.546C170.436 246.098 171.996 248.389 174.369 249.325L217.771 266.439C223.939 268.872 228.88 273.668 231.493 279.763C237.765 294.388 241.094 310.099 241.315 326H253.504C255.922 326 257.882 324.04 257.882 321.623C257.881 305.145 254.532 288.839 248.038 273.695Z" fill="#F3EAE6"/>
<path d="M248.038 273.695C245.425 267.601 240.485 262.804 234.316 260.372L228.34 258.015L214.963 258.256L200.201 246.92L190.915 243.258C189.959 242.882 189.131 242.274 188.488 241.529C187.735 240.656 170.436 238.426 170.436 238.426V243.546C170.436 246.098 171.996 248.389 174.369 249.325L217.771 266.439C223.939 268.872 228.88 273.668 231.493 279.763C237.765 294.388 241.094 310.099 241.315 326H253.504C255.922 326 257.882 324.04 257.882 321.623C257.881 305.145 254.532 288.839 248.038 273.695Z" stroke="#333333"/>
<path d="M163.203 247.86C172.347 247.86 180.955 245.567 188.487 241.529C187.537 240.425 186.98 238.999 186.98 237.479V208.644H139.425V237.479C139.425 238.999 138.868 240.425 137.918 241.529C145.451 245.567 154.059 247.86 163.203 247.86Z" fill="#FFE5C2"/>
<path d="M163.203 247.86C172.347 247.86 180.955 245.567 188.487 241.529C187.537 240.425 186.98 238.999 186.98 237.479V208.644H139.425V237.479C139.425 238.999 138.868 240.425 137.918 241.529C145.451 245.567 154.059 247.86 163.203 247.86Z" stroke="#333333"/>
<path d="M122.305 159.521C123.754 150.583 117.682 142.162 108.744 140.713C99.8054 139.264 91.3847 145.336 89.9357 154.274C88.4867 163.213 94.5581 171.633 103.497 173.082C112.435 174.531 120.856 168.46 122.305 159.521Z" fill="#FFE5C2"/>
<path d="M122.305 159.521C123.754 150.583 117.682 142.162 108.744 140.713C99.8054 139.264 91.3847 145.336 89.9357 154.274C88.4867 163.213 94.5581 171.633 103.497 173.082C112.435 174.531 120.856 168.46 122.305 159.521Z" stroke="#333333"/>
<path d="M231.823 168.513C238.226 162.11 238.226 151.729 231.823 145.326C225.42 138.923 215.039 138.923 208.637 145.326C202.234 151.729 202.234 162.11 208.637 168.513C215.039 174.915 225.42 174.915 231.823 168.513Z" fill="#FFE5C2"/>
<path d="M231.823 168.513C238.226 162.11 238.226 151.729 231.823 145.326C225.42 138.923 215.039 138.923 208.637 145.326C202.234 151.729 202.234 162.11 208.637 168.513C215.039 174.915 225.42 174.915 231.823 168.513Z" stroke="#333333"/>
<path d="M196.098 96.9945C189.54 93.2265 179.638 91.2432 172.114 90.224C166.198 89.4221 160.209 89.4221 154.292 90.224C146.77 91.2438 136.867 93.227 130.309 96.9945C127.885 98.3865 126.001 100.546 124.942 103.134C118.632 118.566 94.2655 186.522 140.943 216.102C154.493 224.688 171.913 224.688 185.462 216.102C232.14 186.522 207.775 118.566 201.464 103.134C200.406 100.546 198.522 98.3865 196.098 96.9945Z" fill="#FFE5C2"/>
<path d="M196.098 96.9945C189.54 93.2265 179.638 91.2432 172.114 90.224C166.198 89.4221 160.209 89.4221 154.292 90.224C146.77 91.2438 136.867 93.227 130.309 96.9945C127.885 98.3865 126.001 100.546 124.942 103.134C118.632 118.566 94.2655 186.522 140.943 216.102C154.493 224.688 171.913 224.688 185.462 216.102C232.14 186.522 207.775 118.566 201.464 103.134C200.406 100.546 198.522 98.3865 196.098 96.9945Z" stroke="#333333"/>
<path d="M201.464 103.134C200.407 100.546 198.522 98.3867 196.099 96.9946C194.011 95.7951 191.582 94.7775 189.001 93.9138C189.614 94.7455 190.127 95.655 190.523 96.6245C196.834 112.057 221.2 180.012 174.522 209.593C163.003 216.892 148.686 217.982 136.328 212.869C137.786 213.989 139.318 215.071 140.944 216.102C154.494 224.688 171.914 224.688 185.464 216.102C232.141 186.522 207.775 118.566 201.464 103.134Z" fill="#FED2A4"/>
<path d="M201.464 103.134C200.407 100.546 198.522 98.3867 196.099 96.9946C194.011 95.7951 191.582 94.7775 189.001 93.9138C189.614 94.7455 190.127 95.655 190.523 96.6245C196.834 112.057 221.2 180.012 174.522 209.593C163.003 216.892 148.686 217.982 136.328 212.869C137.786 213.989 139.318 215.071 140.944 216.102C154.494 224.688 171.914 224.688 185.464 216.102C232.141 186.522 207.775 118.566 201.464 103.134Z" stroke="#333333"/>
<path d="M217.142 288.036C220.962 275.689 224.961 265.605 228.339 258.015L200.2 246.92C194.984 259.577 185.077 279.819 169.538 297.097C166.145 300.87 160.261 300.87 156.868 297.097C141.329 279.819 131.423 259.577 126.206 246.92L98.0679 258.015C101.446 265.605 105.445 275.689 109.264 288.036C113.451 301.569 111.034 315.173 107.142 326H163.204H219.265C215.373 315.173 212.956 301.569 217.142 288.036Z" fill="#F6A96C"/>
<path d="M217.142 288.036C220.962 275.689 224.961 265.605 228.339 258.015L200.2 246.92C194.984 259.577 185.077 279.819 169.538 297.097C166.145 300.87 160.261 300.87 156.868 297.097C141.329 279.819 131.423 259.577 126.206 246.92L98.0679 258.015C101.446 265.605 105.445 275.689 109.264 288.036C113.451 301.569 111.034 315.173 107.142 326H163.204H219.265C215.373 315.173 212.956 301.569 217.142 288.036Z" stroke="#333333"/>
<path d="M200.201 246.919C198.902 250.071 197.311 253.694 195.416 257.624L217.77 266.438C219.839 267.254 221.766 268.341 223.516 269.648C225.2 265.289 226.831 261.402 228.339 258.015L200.201 246.919Z" fill="#EA9B58"/>
<path d="M200.201 246.919C198.902 250.071 197.311 253.694 195.416 257.624L217.77 266.438C219.839 267.254 221.766 268.341 223.516 269.648C225.2 265.289 226.831 261.402 228.339 258.015L200.201 246.919Z" stroke="#333333"/>
<path d="M163.221 196.339C157.472 196.339 153.46 194.094 153.213 193.952C151.231 192.815 150.547 190.287 151.684 188.305C152.815 186.334 155.324 185.649 157.299 186.758C157.585 186.913 162.928 189.718 169.35 186.634C171.407 185.647 173.88 186.514 174.869 188.574C175.858 190.633 174.989 193.104 172.93 194.093C169.428 195.774 166.104 196.339 163.221 196.339Z" fill="#FED2A4"/>
<path d="M163.221 196.339C157.472 196.339 153.46 194.094 153.213 193.952C151.231 192.815 150.547 190.287 151.684 188.305C152.815 186.334 155.324 185.649 157.299 186.758C157.585 186.913 162.928 189.718 169.35 186.634C171.407 185.647 173.88 186.514 174.869 188.574C175.858 190.633 174.989 193.104 172.93 194.093C169.428 195.774 166.104 196.339 163.221 196.339Z" stroke="#333333"/>
<path d="M170.59 171.242C169.601 169.183 167.128 168.315 165.071 169.303C164.386 169.632 163.746 169.742 163.203 169.747C162.659 169.742 162.02 169.633 161.334 169.303C159.277 168.315 156.804 169.182 155.815 171.242C154.872 173.208 155.622 175.545 157.483 176.614L157.479 176.62C160.628 178.461 165.791 178.454 168.925 176.62L168.921 176.614C170.783 175.545 171.533 173.208 170.59 171.242Z" fill="#FED2A4"/>
<path d="M170.59 171.242C169.601 169.183 167.128 168.315 165.071 169.303C164.386 169.632 163.746 169.742 163.203 169.747C162.659 169.742 162.02 169.633 161.334 169.303C159.277 168.315 156.804 169.182 155.815 171.242C154.872 173.208 155.622 175.545 157.483 176.614L157.479 176.62C160.628 178.461 165.791 178.454 168.925 176.62L168.921 176.614C170.783 175.545 171.533 173.208 170.59 171.242Z" stroke="#333333"/>
<path d="M174.195 152.478H153.512C151.227 152.478 149.375 150.626 149.375 148.341C149.375 146.056 151.227 144.205 153.512 144.205H174.195C176.48 144.205 178.331 146.056 178.331 148.341C178.331 150.626 176.479 152.478 174.195 152.478Z" fill="#A79BA7"/>
<path d="M174.195 152.478H153.512C151.227 152.478 149.375 150.626 149.375 148.341C149.375 146.056 151.227 144.205 153.512 144.205H174.195C176.48 144.205 178.331 146.056 178.331 148.341C178.331 150.626 176.479 152.478 174.195 152.478Z" stroke="#333333"/>
<path d="M131.768 175.846C146.958 175.846 159.272 163.531 159.272 148.341C159.272 133.151 146.958 120.837 131.768 120.837C116.578 120.837 104.263 133.151 104.263 148.341C104.263 163.531 116.578 175.846 131.768 175.846Z" fill="#FAF7F7"/>
<path d="M131.768 175.846C146.958 175.846 159.272 163.531 159.272 148.341C159.272 133.151 146.958 120.837 131.768 120.837C116.578 120.837 104.263 133.151 104.263 148.341C104.263 163.531 116.578 175.846 131.768 175.846Z" stroke="#333333"/>
<path d="M137.82 154.218C135.536 154.218 133.684 152.367 133.684 150.082V146.971C133.684 144.686 135.536 142.834 137.82 142.834C140.105 142.834 141.957 144.686 141.957 146.971V150.082C141.957 152.367 140.105 154.218 137.82 154.218Z" fill="#655E67"/>
<path d="M137.82 154.218C135.536 154.218 133.684 152.367 133.684 150.082V146.971C133.684 144.686 135.536 142.834 137.82 142.834C140.105 142.834 141.957 144.686 141.957 146.971V150.082C141.957 152.367 140.105 154.218 137.82 154.218Z" stroke="#333333"/>
<path d="M196.173 175.846C211.363 175.846 223.677 163.531 223.677 148.341C223.677 133.151 211.363 120.837 196.173 120.837C180.983 120.837 168.668 133.151 168.668 148.341C168.668 163.531 180.983 175.846 196.173 175.846Z" fill="#FAF7F7"/>
<path d="M196.173 175.846C211.363 175.846 223.677 163.531 223.677 148.341C223.677 133.151 211.363 120.837 196.173 120.837C180.983 120.837 168.668 133.151 168.668 148.341C168.668 163.531 180.983 175.846 196.173 175.846Z" stroke="#333333"/>
<path d="M190.121 154.218C192.406 154.218 194.257 152.367 194.257 150.082V146.971C194.257 144.686 192.406 142.834 190.121 142.834C187.836 142.834 185.984 144.686 185.984 146.971V150.082C185.984 152.367 187.836 154.218 190.121 154.218Z" fill="#655E67"/>
<path d="M190.121 154.218C192.406 154.218 194.257 152.367 194.257 150.082V146.971C194.257 144.686 192.406 142.834 190.121 142.834C187.836 142.834 185.984 144.686 185.984 146.971V150.082C185.984 152.367 187.836 154.218 190.121 154.218Z" stroke="#333333"/>
</g>
</svg>
