<svg width="130" height="130" viewBox="0 0 130 130" fill="none" xmlns="http://www.w3.org/2000/svg">
<mask id="mask0" mask-type="alpha" maskUnits="userSpaceOnUse" x="0" y="0" width="130" height="130">
<circle cx="65" cy="65" r="65" fill="#E6F9FF"/>
</mask>
<g mask="url(#mask0)">
<circle cx="65" cy="65" r="63" fill="#E6F9FF" stroke="#333333" stroke-width="4"/>
<path d="M80.9686 99.8346C90.1547 99.8346 97.6015 92.3877 97.6015 83.2016C97.6015 74.0154 90.1547 66.5686 80.9686 66.5686C71.7824 66.5686 64.3356 74.0154 64.3356 83.2016C64.3356 92.3877 71.7824 99.8346 80.9686 99.8346Z" fill="#918291"/>
<path d="M89.6426 69.0085C87.117 67.4615 84.1472 66.5688 80.9683 66.5688C71.7822 66.5688 64.3356 74.0155 64.3356 83.2018C64.3356 86.0137 65.0361 88.6607 66.2677 90.9828C70.4349 91.8616 74.874 91.1253 78.5851 88.7738C86.2295 83.9291 89.0937 76.504 89.6426 69.0085Z" fill="#7A6D79"/>
<path d="M71.7934 20.8054C65.6659 21.4544 60.481 24.7963 57.2835 29.5268C56.6428 30.4745 55.533 30.9726 54.3975 30.8358C53.0201 30.67 51.5938 30.6898 50.1473 30.9199C42.2866 32.1699 36.6633 39.378 37.3515 47.3076C38.0944 55.8689 45.7234 62.1022 54.2209 61.1741C57.503 60.8156 60.425 59.4388 62.7147 57.3967C66.5059 59.9484 71.184 61.2262 76.0825 60.6911C87.1893 59.4782 95.1832 49.4161 93.8115 38.2906C92.4789 27.4843 82.6216 19.6585 71.7934 20.8054Z" fill="#918291"/>
<path d="M98.911 109.142C97.8689 106.712 95.8988 104.799 93.4391 103.829L91.0557 102.89L83.8732 103.124L79.8348 98.465L76.1316 97.0049C75.7489 96.8541 75.421 96.6141 75.1641 96.3152L65.3369 95.0779L54.9988 96.3152C54.7419 96.6139 54.4138 96.8541 54.0313 97.0049L50.3281 98.465L45.0431 102.748L39.1072 102.89L36.7238 103.829C34.2641 104.799 32.2939 106.712 31.2519 109.142C28.662 115.181 27.3268 121.683 27.3268 128.254C27.3268 129.218 28.1082 130 29.0724 130H42.7259L65.6514 127.801L87.4376 130H101.091C102.055 130 102.837 129.218 102.837 128.254C102.836 121.683 101.501 115.181 98.911 109.142Z" fill="#FAF7F7"/>
<path d="M98.9111 109.142C97.869 106.712 95.8989 104.799 93.4392 103.829L91.0558 102.89L85.7216 102.986L79.8349 98.465L76.1317 97.0049C75.7507 96.8547 75.4206 96.6123 75.1642 96.3152C74.8638 95.9671 67.9654 95.0779 67.9654 95.0779V97.1197C67.9654 98.1371 68.5874 99.0509 69.5337 99.4242L86.8412 106.249C89.3009 107.219 91.2711 109.132 92.3131 111.562C94.8144 117.394 96.1417 123.659 96.2299 130H101.091C102.055 130 102.836 129.219 102.836 128.255C102.836 121.683 101.501 115.181 98.9111 109.142Z" fill="#F3EAE6"/>
<path d="M65.0811 98.8397C68.7275 98.8397 72.1602 97.9254 75.1636 96.3151C74.7849 95.8748 74.5627 95.3065 74.5627 94.7003V83.2017H55.5991V94.7003C55.5991 95.3065 55.377 95.8748 54.9983 96.3151C58.0019 97.9254 61.4346 98.8397 65.0811 98.8397Z" fill="#FFE5C2"/>
<path d="M48.7722 63.6126C49.35 60.0482 46.9289 56.6902 43.3644 56.1124C39.8 55.5345 36.442 57.9557 35.8642 61.5201C35.2864 65.0846 37.7075 68.4425 41.2719 69.0204C44.8364 69.5982 48.1943 67.177 48.7722 63.6126Z" fill="#FFE5C2"/>
<path d="M92.4452 67.1983C94.9984 64.645 94.9984 60.5054 92.4452 57.9521C89.8919 55.3989 85.7523 55.3989 83.199 57.9521C80.6458 60.5054 80.6457 64.645 83.199 67.1983C85.7523 69.7515 89.8919 69.7515 92.4452 67.1983Z" fill="#FFE5C2"/>
<path d="M78.1989 38.6787C75.5835 37.1762 71.6348 36.3853 68.6348 35.9788C66.2756 35.6591 63.8871 35.6591 61.5279 35.9788C58.528 36.3855 54.5792 37.1764 51.9637 38.6787C50.9971 39.2338 50.2458 40.0951 49.8238 41.127C47.3073 47.2809 37.5908 74.3798 56.2047 86.1756C61.6077 89.5995 68.5545 89.5995 73.9575 86.1756C92.5715 74.3798 82.8551 47.2809 80.3384 41.127C79.9168 40.0951 79.1653 39.2338 78.1989 38.6787Z" fill="#FFE5C2"/>
<path d="M80.3389 41.1268C79.9171 40.0951 79.1656 39.2338 78.1992 38.6787C77.3665 38.2004 76.3982 37.7946 75.3687 37.4502C75.6132 37.7819 75.8178 38.1445 75.9759 38.5312C78.4923 44.6851 88.2089 71.7839 69.595 83.5797C65.0015 86.4908 59.2923 86.9251 54.3643 84.8864C54.9456 85.333 55.5566 85.7645 56.2051 86.1756C61.6082 89.5995 68.5552 89.5995 73.9582 86.1756C92.5719 74.3798 82.8556 47.2807 80.3389 41.1268Z" fill="#FED2A4"/>
<path d="M86.5906 114.861C88.1138 109.938 89.7084 105.916 91.0554 102.89L79.8345 98.4651C77.7544 103.512 73.804 111.584 67.6074 118.474C66.2544 119.979 63.908 119.979 62.5549 118.474C56.3584 111.584 52.408 103.512 50.3278 98.4651L39.1069 102.89C40.454 105.916 42.0487 109.938 43.5718 114.861C45.2413 120.258 44.2773 125.683 42.7255 130H65.0813H87.4371C85.8851 125.683 84.9211 120.258 86.5906 114.861Z" fill="#F6A96C"/>
<path d="M79.8348 98.4648C79.3169 99.7218 78.6826 101.166 77.9269 102.733L86.8412 106.248C87.6662 106.574 88.4344 107.007 89.1325 107.529C89.8039 105.79 90.4545 104.24 91.0555 102.889L79.8348 98.4648Z" fill="#EA9B58"/>
<path d="M65.0881 78.2948C62.7957 78.2948 61.1959 77.3995 61.0972 77.3427C60.307 76.8894 60.034 75.8813 60.4875 75.0911C60.9386 74.305 61.9391 74.0316 62.7267 74.4739C62.8406 74.5357 64.9713 75.6543 67.5324 74.4247C68.3525 74.0308 69.3389 74.3765 69.7332 75.1982C70.1274 76.0194 69.7812 77.0047 68.9597 77.399C67.5634 78.0691 66.2381 78.2948 65.0881 78.2948Z" fill="#FED2A4"/>
<path d="M68.027 68.2868C67.6326 67.4653 66.6463 67.1194 65.8261 67.5133C65.5528 67.6446 65.2979 67.6886 65.081 67.6906C64.8641 67.6886 64.6092 67.6448 64.3359 67.5133C63.5157 67.1194 62.5294 67.4651 62.135 68.2868C61.7589 69.0706 62.0583 70.0027 62.8001 70.4287L62.7986 70.4313C64.0544 71.1653 66.1131 71.1624 67.363 70.4313L67.3615 70.4287C68.104 70.0027 68.4031 69.0706 68.027 68.2868Z" fill="#FED2A4"/>
<path d="M69.4644 60.8041H61.2165C60.3053 60.8041 59.567 60.0658 59.567 59.1546C59.567 58.2434 60.3053 57.5051 61.2165 57.5051H69.4644C70.3756 57.5051 71.1139 58.2434 71.1139 59.1546C71.1139 60.0658 70.3753 60.8041 69.4644 60.8041Z" fill="#A79BA7"/>
<path d="M52.5454 70.1225C58.6029 70.1225 63.5134 65.212 63.5134 59.1545C63.5134 53.0971 58.6029 48.1865 52.5454 48.1865C46.488 48.1865 41.5775 53.0971 41.5775 59.1545C41.5775 65.212 46.488 70.1225 52.5454 70.1225Z" fill="#FAF7F7"/>
<path d="M54.9592 61.4981C54.0482 61.4981 53.3097 60.7598 53.3097 59.8486V58.608C53.3097 57.6968 54.0482 56.9585 54.9592 56.9585C55.8704 56.9585 56.6087 57.6968 56.6087 58.608V59.8486C56.6087 60.7598 55.8701 61.4981 54.9592 61.4981Z" fill="#655E67"/>
<path d="M78.2285 70.1225C84.286 70.1225 89.1965 65.212 89.1965 59.1545C89.1965 53.0971 84.286 48.1865 78.2285 48.1865C72.1711 48.1865 67.2606 53.0971 67.2606 59.1545C67.2606 65.212 72.1711 70.1225 78.2285 70.1225Z" fill="#FAF7F7"/>
<path d="M75.8154 61.4981C76.7266 61.4981 77.4649 60.7598 77.4649 59.8486V58.608C77.4649 57.6968 76.7266 56.9585 75.8154 56.9585C74.9043 56.9585 74.166 57.6968 74.166 58.608V59.8486C74.166 60.7598 74.9043 61.4981 75.8154 61.4981Z" fill="#655E67"/>
<circle cx="65" cy="65" r="63" stroke="#333333" stroke-width="4"/>
</g>
</svg>
