<svg width="1440" height="337" viewBox="0 0 1440 337" fill="none" xmlns="http://www.w3.org/2000/svg">
<path d="M703.857 199.957H779.738C782.894 195.364 790.258 191.987 799.116 191.384C796.721 189.636 792.756 188.93 789.089 189.579C789.087 189.579 789.085 189.58 789.083 189.58C788.067 189.724 787.921 189.301 787.921 189.301L787.917 189.302C787.643 187.656 785.987 186.242 783.618 185.445C783.193 185.302 782.94 185.041 782.941 184.759C782.941 184.758 782.941 184.756 782.941 184.754C782.941 180.77 776.348 177.86 769.62 178.873C768.991 178.968 768.346 178.77 768.094 178.427C766.077 175.681 761.336 173.754 755.807 173.754C748.965 173.754 743.331 176.706 742.572 180.507C742.565 180.522 742.533 180.758 742.531 180.768C742.422 181.146 741.851 181.257 741.5 181.288C741.474 181.289 741.245 181.301 741.224 181.301L741.225 181.303C736.022 181.604 731.955 184.112 731.956 187.185V187.301C731.956 187.459 731.697 187.573 731.429 187.534C730.609 187.416 729.751 187.353 728.866 187.353C725.274 187.353 722.107 188.393 720.231 189.976C720.05 190.129 719.685 190.16 719.429 190.046C714.647 187.924 707.572 189.212 705.851 192.559C705.75 192.754 705.413 192.876 705.064 192.837C701.274 192.413 697.827 194.027 697.593 196.129C697.361 198.22 700.255 199.957 703.857 199.957Z" fill="#ECE5CE"/>
<path d="M871.131 224.027C870.385 217.981 859.939 213.685 849.522 215.539C849.518 215.54 849.515 215.54 849.511 215.54C847.679 215.802 847.416 215.035 847.416 215.035L847.408 215.037C846.913 212.054 843.928 209.49 839.655 208.046C838.888 207.787 838.432 207.314 838.433 206.803C838.433 206.8 838.433 206.797 838.433 206.794C838.433 199.572 826.543 194.298 814.409 196.134C813.274 196.306 812.11 195.948 811.655 195.325C808.017 190.349 799.466 186.855 789.495 186.855C777.154 186.855 766.992 192.207 765.624 199.096C765.483 199.399 765.94 200.382 763.235 200.535C763.21 200.535 763.193 200.535 763.193 200.535L763.194 200.538C754.25 201.059 746.475 205.302 746.478 211.409C746.478 211.696 746.01 211.903 745.527 211.833C737.946 210.73 729.848 212.427 725.332 216.258C725.004 216.535 724.345 216.591 723.885 216.385C715.26 212.539 702.5 214.874 699.395 220.939C699.213 221.294 698.607 221.515 697.976 221.443C691.156 220.677 684.923 223.593 684.502 227.41C684.083 231.2 689.302 234.348 695.799 234.348H854.454C864.093 234.348 871.825 229.657 871.131 224.027Z" fill="#ECE5CE"/>
<path d="M83.9969 375.451C-276.366 372.177 -438.819 433.008 -475 463.833C-377.914 553.852 -167.823 734.709 -104.144 737.983C-40.4658 741.256 1208.02 793.358 1824.3 819C1755.56 646.872 1562.72 292.96 1341.29 254.334C1119.86 215.707 974.05 258.426 805.808 302.617C715.356 328.259 444.36 378.724 83.9969 375.451Z" fill="url(#paint0_linear)"/>
<path d="M1492.91 328.275C1759.34 325.427 1879.44 378.354 1906.19 405.173C1834.41 483.495 1679.09 640.851 1632.01 643.699C1584.93 646.547 661.904 691.879 206.275 714.188C257.099 564.428 399.672 256.504 563.378 222.897C727.083 189.29 834.882 226.457 959.266 264.906C1026.14 287.216 1226.49 331.124 1492.91 328.275Z" fill="#00C293"/>
<path d="M585.413 234.541C584.44 230.125 580.069 227.334 575.654 228.307C571.237 229.28 568.446 233.648 569.419 238.066L572.007 249.8L580.406 252.691L588.025 246.382L585.413 234.541Z" fill="#ECECEE"/>
<path d="M543.059 234.541C544.032 230.125 548.403 227.334 552.818 228.307C557.236 229.28 560.027 233.648 559.054 238.066L556.466 249.8L548.066 252.691L540.448 246.382L543.059 234.541Z" fill="#ECECEE"/>
<path d="M537.664 217.549C545.75 213.144 555.266 210.942 558.827 210.408L556.578 195.368C555.935 195.464 543.417 197.399 531.506 203.598L537.664 217.549Z" fill="#ECECEE"/>
<path d="M590.808 217.549C582.722 213.144 573.206 210.942 569.646 210.408L571.893 195.368C572.537 195.464 585.055 197.399 596.967 203.598L590.808 217.549Z" fill="#ECECEE"/>
<path d="M585.413 234.541C584.44 230.126 580.069 227.334 575.654 228.307C571.236 229.281 568.446 233.649 569.419 238.067L571.396 247.033C577.845 246.396 583.316 244.997 587.418 243.631L585.413 234.541Z" fill="#DADADC"/>
<path d="M552.818 228.307C548.403 227.334 544.032 230.126 543.059 234.541L541.054 243.631C545.157 244.997 550.627 246.396 557.076 247.033L559.053 238.067C560.027 233.649 557.236 229.28 552.818 228.307Z" fill="#DADADC"/>
<path d="M593.076 230.738C590.272 214.329 581.318 201.751 581.318 201.751H547.153C547.153 201.751 538.2 214.329 535.397 230.738C534.999 233.067 536.249 235.372 538.422 236.3C543.18 238.332 552.407 241.451 564.236 241.451C576.064 241.451 585.292 238.332 590.05 236.3C592.223 235.372 593.474 233.067 593.076 230.738Z" fill="#91DAFF"/>
<path d="M573.01 226.88C573.01 229.302 572.028 231.496 570.441 233.085C568.853 234.671 566.66 235.654 564.236 235.654C559.391 235.654 555.462 231.725 555.462 226.88L564.236 224.124L573.01 226.88Z" fill="#4D9AE8"/>
<path d="M573.01 223.366V226.88H555.462V223.366C555.462 222.262 556.356 221.368 557.461 221.368H571.012C572.116 221.368 573.01 222.262 573.01 223.366Z" fill="#ECECEE"/>
<path d="M522.051 219.233C523.545 221.211 525.82 222.255 528.125 222.255C529.72 222.255 531.33 221.753 532.701 220.717C534.239 219.554 535.918 218.501 537.664 217.552V217.549C537.53 211.106 534.023 206.26 531.505 203.597C528.766 205.024 526.059 206.674 523.534 208.58C520.183 211.113 519.519 215.881 522.051 219.233Z" fill="#FFC6B3"/>
<path d="M606.422 219.233C604.927 221.211 602.653 222.255 600.348 222.255C598.752 222.255 597.142 221.753 595.771 220.717C594.234 219.554 592.554 218.501 590.809 217.552V217.549C590.942 211.106 594.449 206.26 596.966 203.597C599.707 205.024 602.414 206.674 604.938 208.58C608.289 211.113 608.954 215.881 606.422 219.233Z" fill="#FFC6B3"/>
<path d="M600.575 157.523C601.05 157.523 602.163 158.788 602.489 159.072C608.525 164.325 612.738 172.332 612.389 180.873C611.989 190.68 604.6 198.466 595.084 194.796C594.582 194.602 591.267 193.36 591.267 192.842C591.267 192.841 591.267 173.794 591.267 173.794L595.939 157.523H600.575Z" fill="#DE4B64"/>
<path d="M527.897 157.523C527.422 157.523 526.309 158.788 525.983 159.072C519.947 164.325 515.734 172.332 516.082 180.873C516.483 190.68 523.872 198.466 533.387 194.796C533.89 194.602 537.205 193.36 537.205 192.842C537.205 192.841 537.205 173.794 537.205 173.794L532.533 157.523C532.533 157.523 527.898 157.523 527.897 157.523Z" fill="#DE4B64"/>
<path d="M573.01 206.353C573.01 211.199 569.082 215.127 564.236 215.127C559.391 215.127 555.462 211.199 555.462 206.353C555.462 201.508 559.391 197.579 564.236 197.579C569.082 197.579 573.01 201.508 573.01 206.353Z" fill="#FFDDCB"/>
<path d="M597.376 169.811C597.528 171.08 597.608 172.369 597.608 173.677C597.608 191.723 582.666 206.353 564.236 206.353C545.806 206.353 530.865 191.723 530.865 173.677C530.865 172.369 530.944 171.08 531.096 169.811L564.236 149.31L597.376 169.811Z" fill="#FFDDCB"/>
<path d="M537.987 173.677C537.987 172.369 538.067 168.705 538.219 167.437L567.579 151.378L564.236 149.31L531.096 169.811C530.944 171.08 530.865 172.369 530.865 173.677C530.865 191.723 545.806 206.353 564.236 206.353C565.44 206.353 566.627 206.289 567.797 206.168C551.042 204.427 537.987 190.545 537.987 173.677Z" fill="#FFC6B3"/>
<path d="M580.766 179.382C579.782 179.382 578.985 178.584 578.985 177.601V174.387C578.985 173.403 579.782 172.607 580.766 172.607C581.749 172.607 582.546 173.403 582.546 174.387V177.601C582.546 178.584 581.749 179.382 580.766 179.382Z" fill="#3A3C4C"/>
<path d="M582.954 184.106H578.576C577.593 184.106 576.795 183.309 576.795 182.325C576.795 181.342 577.593 180.544 578.576 180.544H582.954C583.938 180.544 584.735 181.342 584.735 182.325C584.735 183.309 583.937 184.106 582.954 184.106Z" fill="#FF9EC0"/>
<path d="M547.707 179.382C546.723 179.382 545.926 178.584 545.926 177.601V174.387C545.926 173.403 546.723 172.607 547.707 172.607C548.691 172.607 549.488 173.403 549.488 174.387V177.601C549.488 178.584 548.691 179.382 547.707 179.382Z" fill="#3A3C4C"/>
<path d="M549.896 184.106H545.519C544.535 184.106 543.738 183.309 543.738 182.325C543.738 181.342 544.535 180.544 545.519 180.544H549.896C550.88 180.544 551.676 181.342 551.676 182.325C551.676 183.309 550.88 184.106 549.896 184.106Z" fill="#FF9EC0"/>
<path d="M564.236 183.924C562.569 183.924 561.004 183.225 559.939 182.007C559.291 181.267 559.367 180.142 560.108 179.495C560.848 178.847 561.972 178.923 562.62 179.664C563.008 180.108 563.597 180.363 564.236 180.363C564.874 180.363 565.463 180.108 565.851 179.664C566.499 178.923 567.623 178.847 568.364 179.495C569.104 180.142 569.18 181.266 568.532 182.007C567.468 183.225 565.902 183.924 564.236 183.924Z" fill="#3A3C4C"/>
<path d="M600.736 156.058C600.736 159.785 597.715 162.805 593.989 162.805C590.262 162.805 587.24 159.785 587.24 156.058C587.24 152.332 590.262 149.31 593.989 149.31C597.715 149.31 600.736 152.332 600.736 156.058Z" fill="#F9DA60"/>
<path d="M541.231 156.058C541.231 159.785 538.21 162.805 534.484 162.805C530.757 162.805 527.736 159.785 527.736 156.058C527.736 152.332 530.757 149.31 534.484 149.31C538.21 149.31 541.231 152.332 541.231 156.058Z" fill="#F9DA60"/>
<path d="M597.376 169.811C597.376 169.811 576.052 168.178 564.236 155.31C552.421 168.178 531.096 169.811 531.096 169.811C533.05 153.586 547.142 141 564.236 141C581.33 141 595.423 153.586 597.376 169.811Z" fill="#FF6881"/>
<path d="M582.376 258.808C581.784 258.939 581.189 259 580.607 259C576.848 259 573.459 256.396 572.617 252.573L572.006 249.8L588.024 246.382L588.611 249.047C589.584 253.464 586.794 257.835 582.376 258.808Z" fill="#485B73"/>
<path d="M546.096 258.808C546.688 258.939 547.282 259 547.865 259C551.625 259 555.013 256.396 555.855 252.573L556.466 249.8L540.448 246.382L539.861 249.047C538.888 253.464 541.679 257.835 546.096 258.808Z" fill="#485B73"/>
<circle cx="1264.06" cy="67.0581" r="67.0581" fill="#FFC700" fill-opacity="0.58"/>
<circle cx="1264.06" cy="67.058" r="53.184" fill="#FFC700"/>
<g filter="url(#filter0_b)">
<path d="M1121.47 109.884H1197.35C1200.5 105.292 1207.87 101.915 1216.72 101.312C1214.33 99.563 1210.36 98.857 1206.7 99.5068C1206.7 99.507 1206.69 99.5072 1206.69 99.5074C1205.68 99.6515 1205.53 99.2284 1205.53 99.2284L1205.53 99.2294C1205.25 97.5838 1203.6 96.1693 1201.23 95.3725C1200.8 95.2296 1200.55 94.9687 1200.55 94.6866C1200.55 94.685 1200.55 94.6834 1200.55 94.6819C1200.55 90.6975 1193.96 87.7875 1187.23 88.8004C1186.6 88.8952 1185.95 88.6975 1185.7 88.3541C1183.69 85.6089 1178.94 83.6812 1173.42 83.6812C1166.57 83.6812 1160.94 86.6337 1160.18 90.4346C1160.17 90.4491 1160.14 90.685 1160.14 90.6957C1160.03 91.0736 1159.46 91.1841 1159.11 91.2157C1159.08 91.2169 1158.85 91.2288 1158.83 91.2288L1158.83 91.2303C1153.63 91.5317 1149.56 94.0397 1149.56 97.112V97.2282C1149.56 97.3863 1149.31 97.5006 1149.04 97.4618C1148.22 97.3432 1147.36 97.2801 1146.47 97.2801C1142.88 97.2801 1139.72 98.3206 1137.84 99.9032C1137.66 100.056 1137.29 100.087 1137.04 99.9736C1132.26 97.8515 1125.18 99.1397 1123.46 102.486C1123.36 102.682 1123.02 102.803 1122.67 102.764C1118.88 102.341 1115.43 103.954 1115.2 106.056C1114.97 108.147 1117.86 109.884 1121.47 109.884Z" fill="#ECE5CE"/>
<path d="M1288.74 133.955C1287.99 127.909 1277.55 123.612 1267.13 125.467C1267.13 125.467 1267.12 125.467 1267.12 125.468C1265.29 125.729 1265.02 124.962 1265.02 124.962L1265.02 124.964C1264.52 121.982 1261.54 119.418 1257.26 117.974C1256.5 117.715 1256.04 117.242 1256.04 116.731C1256.04 116.728 1256.04 116.725 1256.04 116.722C1256.04 109.5 1244.15 104.226 1232.02 106.061C1230.88 106.233 1229.72 105.875 1229.26 105.253C1225.62 100.277 1217.07 96.7827 1207.1 96.7827C1194.76 96.7827 1184.6 102.134 1183.23 109.023C1183.09 109.326 1183.55 110.309 1180.84 110.463C1180.82 110.463 1180.8 110.463 1180.8 110.463L1180.8 110.465C1171.86 110.986 1164.08 115.229 1164.09 121.337C1164.09 121.623 1163.62 121.83 1163.14 121.76C1155.55 120.658 1147.46 122.355 1142.94 126.185C1142.61 126.463 1141.95 126.519 1141.49 126.313C1132.87 122.467 1120.11 124.801 1117 130.867C1116.82 131.221 1116.22 131.442 1115.58 131.371C1108.76 130.604 1102.53 133.52 1102.11 137.337C1101.69 141.127 1106.91 144.275 1113.41 144.275H1272.06C1281.7 144.276 1289.43 139.584 1288.74 133.955Z" fill="#ECE5CE"/>
</g>
<path d="M-630.375 329.718C-991.788 327.274 -1154.71 372.708 -1191 395.73C-1093.63 462.964 -882.929 598.044 -819.065 600.489C-755.2 602.934 496.922 641.848 1115 661C1046.06 532.44 852.65 268.107 630.577 239.258C408.504 210.408 262.27 242.314 93.5382 275.32C2.82227 294.471 -268.963 332.163 -630.375 329.718Z" fill="#00A980"/>
<g clip-path="url(#clip0)">
<path d="M867.831 231.544L866.433 231.047C863.903 230.147 862.581 227.367 863.481 224.836L865.518 219.109C867.313 214.061 872.499 211.056 877.772 212.009C878.798 212.223 879.842 211.731 880.33 210.802L885.402 200.71C887.063 197.401 890.939 195.862 894.418 197.128L914.177 204.155C917.184 205.223 919.149 208.122 919.025 211.311L918.51 224.625C918.465 225.63 919.082 226.546 920.03 226.881L925.311 228.759L932.506 237.77C932.707 239.445 932.518 241.144 931.954 242.734L929.917 248.462C929.017 250.992 926.236 252.314 923.706 251.414L867.831 231.544Z" fill="#E64C3C"/>
<path d="M897.158 213.587L886.311 209.729L889.75 202.888C890.305 201.787 891.596 201.276 892.754 201.698L900.417 204.423L897.158 213.587Z" fill="#9FC9D3"/>
<path d="M904.999 206.052L912.548 208.737C913.549 209.092 914.204 210.056 914.165 211.118L913.836 219.518L901.74 215.216L904.999 206.052Z" fill="#9FC9D3"/>
<path d="M903.471 224.863L898.889 223.234C898.256 223.009 897.926 222.314 898.151 221.681C898.376 221.049 899.071 220.718 899.704 220.943L904.285 222.573C904.918 222.798 905.248 223.493 905.023 224.125C904.798 224.758 904.103 225.088 903.471 224.863Z" fill="#ECF0F1"/>
<path d="M887.435 219.161L882.853 217.531C882.22 217.307 881.89 216.611 882.115 215.979C882.34 215.346 883.035 215.016 883.667 215.241L888.249 216.87C888.882 217.095 889.212 217.79 888.987 218.423C888.762 219.055 888.067 219.386 887.435 219.161Z" fill="#ECF0F1"/>
<path d="M918.135 183.627C916.149 182.923 913.955 183.112 912.118 184.146C911.508 184.484 910.782 184.544 910.124 184.31C909.467 184.077 908.942 183.572 908.682 182.924C907.463 179.837 904.313 177.963 901.019 178.363C897.725 178.763 895.115 181.336 894.67 184.625C894.224 187.913 896.054 191.088 899.123 192.35C900.429 192.907 901.871 193.06 903.264 192.79L900.901 199.434L907.774 201.878L910.14 195.223C911.051 196.312 912.265 197.103 913.629 197.496C917.414 198.6 921.392 196.498 922.61 192.748C923.828 188.998 921.846 184.958 918.135 183.627V183.627ZM901.131 187.903C899.866 187.453 899.205 186.063 899.655 184.797C900.105 183.532 901.495 182.871 902.76 183.321C904.025 183.771 904.686 185.162 904.236 186.427C904.02 187.034 903.572 187.531 902.989 187.808C902.407 188.085 901.738 188.119 901.131 187.903ZM914.876 192.791C913.611 192.341 912.95 190.951 913.4 189.685C913.85 188.42 915.24 187.759 916.506 188.209C917.771 188.659 918.432 190.05 917.982 191.315C917.766 191.922 917.317 192.419 916.735 192.696C916.152 192.973 915.484 193.007 914.876 192.791Z" fill="#F0C419"/>
<path d="M932.506 237.77L925.565 235.301C924.3 234.851 923.639 233.461 924.089 232.196L925.311 228.759C929.226 230.153 932.013 233.643 932.506 237.77Z" fill="#F3D55B"/>
<path d="M889.012 236.496C888.737 237.266 888.379 238.004 887.945 238.697C885.214 243.023 879.849 244.878 875.028 243.164C870.207 241.45 867.218 236.624 867.831 231.544C867.933 230.733 868.121 229.935 868.394 229.164C870.419 223.47 876.676 220.496 882.369 222.521C888.063 224.545 891.037 230.802 889.012 236.496Z" fill="#464F5D"/>
<path d="M923.375 248.716C923.1 249.486 922.742 250.224 922.309 250.917C919.577 255.243 914.212 257.099 909.391 255.384C904.571 253.67 901.582 248.844 902.195 243.764C902.296 242.953 902.485 242.155 902.757 241.384C904.782 235.69 911.039 232.716 916.732 234.741C922.426 236.765 925.4 243.022 923.375 248.716Z" fill="#464F5D"/>
<path d="M911.437 249.632C913.967 250.532 916.748 249.21 917.648 246.679C918.548 244.149 917.226 241.368 914.696 240.468C912.165 239.568 909.384 240.89 908.484 243.421C907.585 245.951 908.906 248.732 911.437 249.632Z" fill="#ECF0F1"/>
<path d="M877.074 237.412C879.604 238.311 882.385 236.99 883.285 234.459C884.185 231.929 882.863 229.148 880.332 228.248C877.802 227.348 875.021 228.67 874.121 231.2C873.221 233.731 874.543 236.512 877.074 237.412Z" fill="#ECF0F1"/>
</g>
<g clip-path="url(#clip1)">
<path d="M1325.37 170.425C1332.04 167.379 1340.05 170.602 1343.25 177.623C1343.59 178.374 1343.86 179.137 1344.07 179.906L1343.85 180.994L1325.34 195.065L1324.53 194.899C1322.24 193.463 1320.31 191.337 1319.09 188.653C1315.88 181.631 1318.69 173.471 1325.37 170.425Z" fill="#E39B74"/>
<path d="M1325.33 187.257C1322.21 180.424 1324.79 172.512 1331.09 169.286C1329.16 169.221 1327.21 169.581 1325.37 170.425C1318.69 173.471 1315.88 181.631 1319.09 188.652C1320.31 191.336 1322.24 193.463 1324.53 194.898L1325.34 195.064L1329.06 192.235C1327.53 190.915 1326.24 189.239 1325.33 187.257Z" fill="#DD8858"/>
<path d="M1328.42 177.113C1332.07 175.446 1336.53 177.313 1338.56 181.29L1338.19 182.164L1327.62 190.676L1326.88 190.523C1326.17 189.786 1325.56 188.908 1325.1 187.906C1323.16 183.666 1324.65 178.834 1328.42 177.113Z" fill="#DD8858"/>
<path d="M1330.18 186.326C1328.54 182.74 1329.35 178.73 1331.92 176.538C1330.74 176.423 1329.54 176.601 1328.42 177.114C1324.65 178.834 1323.16 183.666 1325.1 187.906C1325.56 188.909 1326.17 189.787 1326.88 190.523L1327.62 190.676L1331.08 187.889C1330.74 187.408 1330.44 186.888 1330.18 186.326Z" fill="#DA7E4A"/>
<path d="M1380.75 181.805C1375.82 176.375 1367.19 176.179 1361.47 181.368C1360.86 181.922 1360.32 182.518 1359.82 183.142L1359.6 184.23L1371.06 204.46L1371.87 204.627C1374.54 204.208 1377.15 203.015 1379.33 201.031C1385.04 195.843 1385.68 187.235 1380.75 181.805Z" fill="#E39B74"/>
<path d="M1364.04 187.798C1369.75 182.609 1378.38 182.805 1383.31 188.235C1383.55 188.498 1383.77 188.77 1383.99 189.046C1383.7 186.414 1382.63 183.878 1380.75 181.805C1375.82 176.375 1367.19 176.179 1361.47 181.368C1360.86 181.922 1360.32 182.517 1359.82 183.142L1359.6 184.23L1362.53 189.401C1362.99 188.839 1363.49 188.301 1364.04 187.798Z" fill="#DD8858"/>
<path d="M1375.3 186.748C1372.6 183.774 1367.77 183.733 1364.34 186.587L1364.33 187.535L1370.69 199.525L1371.43 199.678C1372.38 199.282 1373.28 198.716 1374.1 197.975C1377.55 194.842 1378.09 189.815 1375.3 186.748Z" fill="#DD8858"/>
<path d="M1377.08 191.695C1377.13 189.884 1376.55 188.12 1375.3 186.748C1372.61 183.774 1367.77 183.733 1364.34 186.587L1364.33 187.535L1366.58 191.78C1369.87 189.144 1374.37 189.105 1377.08 191.695Z" fill="#DA7E4A"/>
<path d="M1345.4 260.871L1326.61 257.01L1322.16 269.198L1322.39 270.014C1325.43 272.248 1328.94 273.861 1332.81 274.655C1336.68 275.45 1340.54 275.352 1344.21 274.497L1344.69 273.391L1345.4 260.871Z" fill="#CB6C35"/>
<path d="M1329.67 257.639L1326.61 257.01L1322.16 269.198L1322.39 270.014C1325.43 272.248 1328.94 273.861 1332.81 274.655C1336.09 275.329 1339.36 275.359 1342.52 274.833C1336.23 271.487 1331.55 265.199 1329.67 257.639Z" fill="#AE5E2E"/>
<path d="M1356.42 226.756C1356.42 226.756 1347.99 228.631 1342.5 227.503C1337.01 226.374 1330.16 221.251 1330.16 221.251L1322.95 230.426L1319.74 246.021L1325.79 257.137L1326.73 257.703C1329.2 259.748 1332.14 261.216 1335.43 261.892C1338.72 262.568 1342.01 262.38 1345.08 261.475L1346.25 261.359L1355.8 253.351L1359.11 237.256L1356.42 226.756Z" fill="#E39B74"/>
<path d="M1328.93 246.909C1329.8 238.453 1333.91 231.218 1339.67 226.645C1334.91 224.806 1330.16 221.251 1330.16 221.251L1322.95 230.426L1319.74 246.021L1325.79 257.137L1326.73 257.703C1327.86 258.639 1329.09 259.452 1330.4 260.125C1329.01 256.077 1328.45 251.575 1328.93 246.909Z" fill="#DD8858"/>
<path d="M1330.24 222.069L1330.16 221.251L1325.57 214.484L1324.79 214.325C1319.31 216.347 1309.07 221.416 1305.97 231.815C1304.98 235.116 1304.62 237.934 1304.65 240.312C1304.67 241.95 1305.12 243.459 1305.87 244.757L1306.92 244.973L1320.39 246.074L1320.98 245.955C1322.4 244.215 1323.18 241.967 1323.04 239.595C1322.73 234.468 1323.84 227.539 1330.24 222.069Z" fill="#CB6C35"/>
<path d="M1374.37 245.871C1375.62 235.093 1368.21 226.395 1363.97 222.374L1362.84 222.142L1356.09 226.443L1355.91 227.344C1359.63 234.895 1357.91 241.697 1355.61 246.288C1354.55 248.412 1354.37 250.785 1354.99 252.943L1355.63 253.567L1368.57 257.64L1369.36 257.802C1370.56 256.907 1371.56 255.696 1372.23 254.198C1373.19 252.024 1373.97 249.293 1374.37 245.871Z" fill="#CB6C35"/>
<path d="M1325.34 214.437L1324.79 214.325C1319.31 216.347 1309.07 221.416 1305.97 231.815C1304.98 235.116 1304.62 237.934 1304.65 240.312C1304.67 241.95 1305.12 243.459 1305.87 244.757L1306.92 244.973L1313.3 245.494C1312.82 244.411 1312.54 243.211 1312.53 241.93C1312.5 239.552 1312.86 236.735 1313.84 233.433C1316.06 225.98 1321.95 221.265 1327.13 218.447L1327.24 217.9L1325.34 214.437Z" fill="#AE5E2E"/>
<path d="M1354.99 252.943L1355.43 253.371L1363.31 254.989L1362.87 254.561C1362.25 252.403 1362.42 250.031 1363.49 247.906C1365.79 243.315 1367.51 236.513 1363.78 228.962L1363.97 228.061L1367.31 225.93C1366.12 224.512 1364.96 223.314 1363.97 222.374L1362.84 222.142L1356.09 226.443L1355.91 227.343C1359.63 234.894 1357.91 241.697 1355.61 246.288C1354.55 248.412 1354.37 250.785 1354.99 252.943Z" fill="#AE5E2E"/>
<path d="M1342.31 228.407C1355.62 231.142 1368.63 222.569 1371.36 209.259C1374.1 195.949 1365.53 182.941 1352.22 180.206C1338.91 177.471 1325.9 186.044 1323.16 199.354C1320.43 212.665 1329 225.672 1342.31 228.407Z" fill="#CB6C35"/>
<path d="M1332.51 201.276C1334.92 189.565 1345.28 181.523 1356.8 181.622C1355.35 181.014 1353.82 180.535 1352.22 180.206C1338.91 177.471 1325.9 186.044 1323.16 199.354C1320.43 212.664 1329 225.672 1342.31 228.407C1343.91 228.736 1345.51 228.899 1347.08 228.913C1336.46 224.461 1330.11 212.986 1332.51 201.276Z" fill="#AE5E2E"/>
<path d="M1315.04 273.819C1322.57 272.841 1327.77 265.128 1326.66 256.591C1325.55 248.055 1318.55 241.927 1311.02 242.905C1303.5 243.884 1298.29 251.597 1299.4 260.133C1300.51 268.67 1307.51 274.797 1315.04 273.819Z" fill="#E39B74"/>
<path d="M1369.36 274.463C1373.75 267.056 1372.01 257.915 1365.47 254.048C1358.94 250.18 1350.09 253.05 1345.7 260.458C1341.32 267.865 1343.06 277.005 1349.59 280.873C1356.12 284.74 1364.98 281.871 1369.36 274.463Z" fill="#E39B74"/>
<path d="M1309.02 262.068C1307.96 253.886 1312.7 246.465 1319.73 245.009C1317.17 243.291 1314.12 242.462 1310.99 242.869C1303.47 243.845 1298.26 251.553 1299.37 260.085C1300.48 268.617 1307.48 274.742 1315 273.765C1315.31 273.725 1315.61 273.67 1315.91 273.607C1312.32 271.201 1309.67 267.046 1309.02 262.068Z" fill="#DD8858"/>
<path d="M1355.29 262.44C1357.84 258.121 1361.92 255.348 1366.17 254.552C1365.92 254.377 1365.66 254.207 1365.39 254.048C1358.86 250.184 1350.02 253.054 1345.64 260.457C1341.26 267.861 1343 276.996 1349.53 280.86C1352.25 282.47 1355.37 282.907 1358.4 282.339C1352.52 278.23 1351.08 269.541 1355.29 262.44Z" fill="#DD8858"/>
<path d="M1352.37 205.702L1342.02 203.575C1337.08 204.093 1333.13 206.815 1332.32 210.763C1331.23 216.06 1336.2 221.557 1343.42 223.04C1350.63 224.524 1357.37 221.431 1358.46 216.134C1359.27 212.186 1356.71 208.128 1352.37 205.702Z" fill="#E39B74"/>
<path d="M1342.51 212.857C1343.32 208.909 1347.27 206.187 1352.21 205.67L1342.02 203.575C1337.08 204.093 1333.13 206.815 1332.32 210.763C1331.23 216.06 1336.2 221.557 1343.42 223.04C1345.22 223.412 1347 223.496 1348.67 223.331C1344.28 220.91 1341.69 216.828 1342.51 212.857Z" fill="#DD8858"/>
<path d="M1349.84 215.412C1348.76 215.813 1347.63 216 1346.51 215.98L1347.74 209.995C1347.91 209.127 1347.35 208.278 1346.49 208.099C1345.62 207.92 1344.77 208.48 1344.59 209.349L1343.36 215.333C1342.32 214.91 1341.36 214.292 1340.52 213.497C1339.88 212.887 1338.86 212.913 1338.25 213.556C1337.64 214.2 1337.66 215.216 1338.31 215.827C1341.73 219.079 1346.55 220.052 1350.95 218.426C1351.79 218.118 1352.21 217.194 1351.9 216.362C1351.6 215.53 1350.67 215.105 1349.84 215.412Z" fill="#CB6C35"/>
<path d="M1364.7 202.724C1364.36 200.958 1362.85 199.509 1360.95 199.118C1359.05 198.727 1357.09 199.465 1356.08 200.954C1355.58 201.688 1355.78 202.686 1356.51 203.185C1357.24 203.683 1358.24 203.492 1358.74 202.757C1358.97 202.413 1359.56 202.112 1360.3 202.264C1361.04 202.417 1361.46 202.925 1361.54 203.334C1361.71 204.204 1362.55 204.774 1363.43 204.606C1364.3 204.438 1364.87 203.595 1364.7 202.724Z" fill="#924D24"/>
<path d="M1336.74 194.143C1334.83 193.752 1332.88 194.49 1331.87 195.979C1331.37 196.713 1331.56 197.711 1332.3 198.209C1333.03 198.707 1334.03 198.516 1334.53 197.782C1334.76 197.438 1335.35 197.137 1336.09 197.289C1336.83 197.441 1337.25 197.95 1337.33 198.358C1337.5 199.229 1338.34 199.799 1339.21 199.631C1340.08 199.462 1340.65 198.62 1340.48 197.749C1340.14 195.982 1338.64 194.533 1336.74 194.143Z" fill="#924D24"/>
<path d="M1345.92 210.838C1348.92 211.454 1351.79 209.824 1352.33 207.197C1352.87 204.57 1350.88 201.941 1347.88 201.325C1344.88 200.709 1342.01 202.339 1341.47 204.966C1340.93 207.593 1342.92 210.222 1345.92 210.838Z" fill="#695D67"/>
<path d="M1346.74 206.049C1347.11 204.259 1348.56 202.933 1350.39 202.464C1349.69 201.923 1348.83 201.521 1347.88 201.325C1344.88 200.709 1342.01 202.339 1341.47 204.966C1340.93 207.593 1342.92 210.222 1345.92 210.838C1346.88 211.035 1347.82 211.002 1348.68 210.782C1347.18 209.627 1346.37 207.838 1346.74 206.049Z" fill="#544E55"/>
</g>
<g clip-path="url(#clip2)">
<path d="M120.81 250.159L95.4804 256.946L91.6572 242.678L114.953 236.436C116.076 236.135 117.23 236.801 117.531 237.925L120.81 250.159Z" fill="#E86478"/>
<path d="M122.345 249.748L70.0646 263.756C68.1928 264.258 67.0819 266.182 67.5835 268.054L69.7036 275.966C70.2052 277.838 72.1293 278.949 74.0011 278.448L132.978 262.645C135.576 261.949 136.261 258.583 134.142 256.926L125.879 250.468C124.879 249.686 123.57 249.42 122.345 249.748Z" fill="#F8CA4F"/>
<path opacity="0.1" d="M74.9255 274.567L72.8053 266.655C72.3038 264.783 73.4147 262.859 75.2865 262.357L70.0646 263.756C68.1928 264.258 67.0819 266.182 67.5835 268.054L69.7037 275.967C70.2052 277.838 72.1293 278.949 74.0012 278.448L79.223 277.049C77.3512 277.55 75.4271 276.439 74.9255 274.567Z" fill="#333333"/>
<path d="M89.5722 285.236C95.2199 283.722 98.5714 277.917 97.0581 272.27C95.5448 266.622 89.7398 263.27 84.0922 264.784C78.4445 266.297 75.093 272.102 76.6062 277.75C78.1195 283.397 83.9246 286.749 89.5722 285.236Z" fill="#E86478"/>
<path opacity="0.15" d="M88.0336 279.495C90.5109 278.831 91.981 276.285 91.3172 273.808C90.6534 271.331 88.1071 269.86 85.6299 270.524C83.1527 271.188 81.6826 273.734 82.3464 276.211C83.0102 278.689 85.5564 280.159 88.0336 279.495Z" fill="#333333"/>
<path d="M119.567 277.198C125.215 275.685 128.567 269.88 127.053 264.232C125.54 258.585 119.735 255.233 114.087 256.747C108.44 258.26 105.088 264.065 106.601 269.713C108.115 275.36 113.92 278.712 119.567 277.198Z" fill="#E86478"/>
<path opacity="0.15" d="M118.029 271.458C120.506 270.794 121.977 268.248 121.313 265.77C120.649 263.293 118.103 261.823 115.626 262.487C113.148 263.151 111.678 265.697 112.342 268.174C113.006 270.651 115.552 272.121 118.029 271.458Z" fill="#333333"/>
<path d="M89.2718 233.774L65.688 240.094L71.8969 263.266L95.4807 256.946L89.2718 233.774Z" fill="#61C6AD"/>
<path opacity="0.1" d="M89.2718 233.774L65.688 240.094L66.7407 244.022L90.3245 237.703L89.2718 233.774Z" fill="#333333"/>
<path d="M88.5839 224.912L61.8525 232.075C60.5007 232.437 59.6984 233.827 60.0606 235.178L61.0105 238.723C61.3727 240.075 62.7622 240.878 64.1141 240.515L90.8456 233.353C92.1973 232.99 92.9996 231.601 92.6374 230.249L91.6875 226.704C91.3253 225.352 89.9358 224.55 88.5839 224.912Z" fill="#92D2E7"/>
<path opacity="0.1" d="M65.3833 237.552L64.4334 234.007C64.0712 232.655 64.8734 231.265 66.2253 230.903L61.8525 232.075C60.5007 232.437 59.6984 233.827 60.0606 235.178L61.0105 238.723C61.3727 240.075 62.7622 240.877 64.1141 240.515L68.4867 239.344C67.135 239.706 65.7455 238.904 65.3833 237.552Z" fill="#333333"/>
<path d="M110.914 228.268L101.329 230.836L103.642 239.468L113.226 236.899L110.914 228.268Z" fill="#F8CA4F"/>
<path opacity="0.1" d="M110.914 228.268L101.329 230.836L102.125 233.805L111.709 231.237L110.914 228.268Z" fill="#333333"/>
<path d="M111.791 228.032L100.451 231.07C99.599 231.299 98.723 230.793 98.4946 229.941L97.703 226.986C97.4746 226.134 97.9805 225.258 98.8326 225.03L110.173 221.991C111.025 221.763 111.901 222.269 112.129 223.121L112.921 226.075C113.149 226.928 112.644 227.803 111.791 228.032Z" fill="#92D2E7"/>
<path opacity="0.1" d="M101.596 229.11L100.804 226.156C100.576 225.303 101.081 224.427 101.934 224.199L98.8326 225.03C97.9803 225.258 97.4747 226.134 97.703 226.986L98.4946 229.941C98.723 230.793 99.5989 231.299 100.451 231.07L103.552 230.24C102.7 230.468 101.824 229.962 101.596 229.11Z" fill="#333333"/>
<path d="M81.9104 253.468C85.042 252.629 86.9005 249.41 86.0614 246.278C85.2223 243.146 82.0033 241.288 78.8716 242.127C75.7399 242.966 73.8814 246.185 74.7206 249.317C75.5597 252.449 78.7787 254.307 81.9104 253.468Z" fill="white"/>
<path opacity="0.1" d="M95.9861 241.517L91.6567 242.677L95.4801 256.946L99.8095 255.786L95.9861 241.517Z" fill="#333333"/>
</g>
<g clip-path="url(#clip3)">
<path fill-rule="evenodd" clip-rule="evenodd" d="M216.253 197.231L225.229 195.782L227.58 210.348L218.605 211.797L216.253 197.231Z" fill="#FFC243"/>
<path fill-rule="evenodd" clip-rule="evenodd" d="M240.28 193.352L249.256 191.903L251.607 206.468L242.631 207.918L240.28 193.352Z" fill="#FFC243"/>
<path fill-rule="evenodd" clip-rule="evenodd" d="M256.164 214.815L216.908 221.153L221.51 249.658C221.621 250.344 222.273 250.815 222.96 250.704L232.905 249.099C233.633 248.981 234.128 248.29 234.012 247.566L232.137 235.953C231.505 232.042 234.19 228.323 238.101 227.692C242.016 227.06 245.735 229.745 246.366 233.656L248.241 245.268C248.358 245.993 249.046 246.493 249.77 246.376L259.719 244.77C260.405 244.659 260.877 244.006 260.766 243.32L256.164 214.815Z" fill="#FFC243"/>
<path fill-rule="evenodd" clip-rule="evenodd" d="M259.485 214.228L267.826 241.491C268.187 242.675 269.453 243.345 270.636 242.984L278.893 240.459C280.077 240.097 280.751 238.831 280.389 237.644L272.049 210.385C271.683 209.202 270.417 208.528 269.234 208.889L260.978 211.418C259.993 211.72 259.358 212.651 259.386 213.637C259.391 213.717 259.397 213.801 259.406 213.881C259.425 213.998 259.447 214.114 259.485 214.228Z" fill="#6FD7A3"/>
<path fill-rule="evenodd" clip-rule="evenodd" d="M217.123 222.484L217.756 226.41L250.677 221.095C253.573 220.628 253.335 222.249 253.806 225.164L257.041 245.202L259.719 244.77C260.405 244.659 260.877 244.006 260.766 243.32L256.379 216.146L217.123 222.484Z" fill="#FEA610"/>
<path fill-rule="evenodd" clip-rule="evenodd" d="M227.337 208.839L226.067 200.976L225.472 197.291L221.663 197.906L216.497 198.74L217.091 202.425L220.391 201.892C222.402 201.567 222.433 202.673 222.735 204.544L223.528 209.454L227.337 208.839Z" fill="#FEA610"/>
<path fill-rule="evenodd" clip-rule="evenodd" d="M251.364 204.96L250.094 197.096L249.499 193.412L245.69 194.027L240.523 194.861L241.118 198.546L244.422 198.012C246.432 197.688 246.46 198.794 246.762 200.664L247.555 205.575L251.364 204.96Z" fill="#FEA610"/>
<path fill-rule="evenodd" clip-rule="evenodd" d="M267.918 211.648L276.259 238.91C276.62 240.09 275.953 241.351 274.778 241.719L278.893 240.459C280.077 240.097 280.751 238.831 280.389 237.644L272.048 210.385C271.683 209.202 270.417 208.528 269.234 208.889L265.108 210.155C266.291 209.79 267.557 210.464 267.918 211.648Z" fill="#3EC3A4"/>
<path fill-rule="evenodd" clip-rule="evenodd" d="M242.339 206.417L227.284 208.848L218.308 210.297L213.911 211.007C212.809 211.184 212.05 212.232 212.228 213.333L213.468 221.016C213.646 222.117 214.697 222.876 215.798 222.698L217.122 222.484L256.378 216.147L257.702 215.933C258.712 215.77 259.431 214.876 259.406 213.881C259.397 213.802 259.391 213.717 259.386 213.637C259.384 213.626 259.382 213.614 259.38 213.603L258.14 205.921C257.962 204.819 256.915 204.064 255.814 204.241L251.315 204.968L242.339 206.417Z" fill="#EC5469"/>
<path fill-rule="evenodd" clip-rule="evenodd" d="M250.952 207.081L252.198 214.798C252.203 214.878 252.209 214.962 252.218 215.042C252.243 216.036 251.524 216.93 250.514 217.093L256.378 216.147L257.702 215.933C258.712 215.77 259.431 214.876 259.406 213.881C259.397 213.802 259.391 213.717 259.386 213.637L259.38 213.603L258.14 205.921C257.962 204.819 256.915 204.064 255.814 204.241L251.315 204.968L248.626 205.402C249.727 205.224 250.774 205.98 250.952 207.081Z" fill="#E5374E"/>
<path fill-rule="evenodd" clip-rule="evenodd" d="M230.473 181.774C230.588 181.675 230.749 181.649 230.89 181.707L243.64 186.935L255.293 191.717C255.67 191.872 255.607 192.426 255.204 192.491L232.996 196.076L210.792 199.661C210.389 199.726 210.155 199.221 210.464 198.955L220.02 190.749L230.473 181.774Z" fill="#6FD7A3"/>
<path fill-rule="evenodd" clip-rule="evenodd" d="M230.473 181.774L229.213 182.856C232.015 185.256 234.069 188.798 234.74 192.958C234.893 193.901 234.966 194.837 234.972 195.757L240.523 194.861L245.69 194.027L249.499 193.412L255.203 192.491C255.606 192.426 255.67 191.872 255.292 191.718L243.639 186.935L230.889 181.707C230.749 181.649 230.588 181.675 230.473 181.774Z" fill="#3EC3A4"/>
</g>
<g clip-path="url(#clip4)">
<path d="M971.652 289.936L966.719 289.869L966.561 301.512L971.494 301.579L971.652 289.936Z" fill="#4B596E"/>
<path d="M1010.15 290.458L1005.21 290.391L1005.06 302.034L1009.99 302.101L1010.15 290.458Z" fill="#36465C"/>
<path d="M1015.39 287.796C1015.35 290.874 1012.82 293.336 1009.74 293.294L1002.57 293.197L1002.72 282.05L1009.89 282.147C1012.97 282.189 1015.43 284.718 1015.39 287.796Z" fill="#DE4A3C"/>
<path d="M961.547 287.066C961.506 290.144 963.967 292.673 967.045 292.715L974.216 292.812L974.367 281.665L967.197 281.568C964.118 281.526 961.589 283.988 961.547 287.066Z" fill="#FF5948"/>
<path d="M967.542 316.191L964.907 316.156C962.834 316.128 961.177 314.424 961.205 312.351L961.367 300.388C961.38 299.4 962.192 298.61 963.18 298.624L971.533 298.737L971.346 312.489C971.318 314.562 969.615 316.22 967.542 316.191Z" fill="#FF5948"/>
<path d="M1011.24 316.784L1008.61 316.748C1006.54 316.72 1004.88 315.017 1004.91 312.944L1005.09 299.192L1013.45 299.305C1014.43 299.319 1015.22 300.131 1015.21 301.119L1015.05 313.081C1015.02 315.154 1013.32 316.812 1011.24 316.784Z" fill="#DE4A3C"/>
<path d="M983.186 310.309L975.839 310.21L975.577 329.529L982.924 329.629L983.186 310.309Z" fill="#4B596E"/>
<path d="M1000.48 310.544L993.131 310.444L992.869 329.764L1000.22 329.863L1000.48 310.544Z" fill="#36465C"/>
<path d="M992.35 272.265L985.003 272.166L984.878 281.422L992.225 281.522L992.35 272.265Z" fill="#4B596E"/>
<path d="M998.597 296.98L978.086 296.701L977.948 306.937L998.458 307.215L998.597 296.98Z" fill="#4B596E"/>
<path d="M998.596 296.98L993.064 296.905L992.926 307.141L998.458 307.216L998.596 296.98Z" fill="#36465C"/>
<path d="M988.86 258.655C988.119 258.645 987.526 258.036 987.536 257.295L987.614 251.551C987.624 250.81 988.233 250.217 988.974 250.227C989.715 250.237 990.307 250.846 990.297 251.587L990.219 257.332C990.209 258.073 989.601 258.665 988.86 258.655Z" fill="#36465C"/>
<path d="M994.427 274.521L982.864 274.364C980.393 274.33 978.417 272.3 978.451 269.83L978.572 260.888C978.606 258.417 980.636 256.441 983.107 256.475L994.67 256.632C997.141 256.665 999.116 258.695 999.083 261.166L998.962 270.108C998.928 272.579 996.898 274.554 994.427 274.521Z" fill="#36E3C0"/>
<path d="M1003.14 299.365L973.484 298.963C972.405 298.948 971.542 298.062 971.557 296.983L971.774 280.97C971.788 279.891 972.675 279.029 973.754 279.043L1003.41 279.445C1004.49 279.46 1005.35 280.347 1005.33 281.425L1005.12 297.438C1005.1 298.517 1004.22 299.379 1003.14 299.365Z" fill="#36E3C0"/>
<path d="M1003.41 279.446L997.875 279.371C998.954 279.385 999.817 280.271 999.802 281.35L999.585 297.363C999.57 298.442 998.684 299.304 997.604 299.29L1003.14 299.365C1004.22 299.379 1005.1 298.517 1005.12 297.438L1005.33 281.425C1005.35 280.346 1004.49 279.46 1003.41 279.446Z" fill="#32B399"/>
<path d="M985.999 292.843L978.159 292.737C977.797 292.732 977.508 292.435 977.513 292.073L977.606 285.168C977.611 284.807 977.908 284.517 978.27 284.522L986.111 284.628C986.472 284.633 986.762 284.93 986.757 285.292L986.663 292.197C986.658 292.559 986.361 292.848 985.999 292.843Z" fill="#F8D77E"/>
<path d="M1000.45 312.375L975.814 312.041L975.905 305.302C975.911 304.907 976.235 304.591 976.631 304.597L999.839 304.911C1000.23 304.917 1000.55 305.241 1000.54 305.637L1000.45 312.375Z" fill="#36E3C0"/>
<path d="M995.022 304.846L994.921 312.3L1000.45 312.375L1000.54 305.637C1000.55 305.241 1000.23 304.917 999.838 304.911L995.022 304.846Z" fill="#32B399"/>
<path d="M988.945 252.329C990.799 252.355 992.322 250.873 992.347 249.021C992.372 247.168 990.89 245.646 989.036 245.621C987.183 245.596 985.66 247.077 985.635 248.93C985.61 250.782 987.092 252.304 988.945 252.329Z" fill="#FF5948"/>
<path d="M984.44 264.148C985.18 264.158 985.789 263.566 985.799 262.825C985.809 262.084 985.217 261.475 984.476 261.465C983.735 261.455 983.126 262.047 983.116 262.788C983.106 263.529 983.699 264.138 984.44 264.148Z" fill="#F8D77E"/>
<path d="M992.8 264.261C993.541 264.271 994.15 263.679 994.16 262.938C994.17 262.197 993.578 261.588 992.837 261.578C992.096 261.568 991.487 262.16 991.477 262.901C991.467 263.642 992.059 264.251 992.8 264.261Z" fill="#F8D77E"/>
<path d="M996.607 324.93L996.61 324.931C999.665 324.972 1002.11 327.481 1002.07 330.536L1001.98 336.686C1001.98 337.081 1001.65 337.397 1001.26 337.392L991.624 337.261C991.229 337.256 990.913 336.931 990.918 336.536L991.002 330.386C991.043 327.331 993.553 324.889 996.607 324.93Z" fill="#DE4A3C"/>
<path d="M979.314 324.696L979.318 324.696C982.372 324.737 984.814 327.247 984.773 330.301L984.69 336.452C984.684 336.847 984.359 337.163 983.964 337.157L974.332 337.027C973.936 337.021 973.62 336.697 973.626 336.302L973.709 330.151C973.751 327.097 976.26 324.654 979.314 324.696Z" fill="#FF5948"/>
<path d="M992.711 270.924L984.677 270.815C983.936 270.805 983.344 270.196 983.354 269.455C983.364 268.714 983.973 268.122 984.714 268.132L992.747 268.241C993.488 268.251 994.08 268.86 994.07 269.601C994.06 270.342 993.452 270.934 992.711 270.924Z" fill="#36465C"/>
</g>
<defs>
<filter id="filter0_b" x="1068.09" y="49.6812" width="254.696" height="128.594" filterUnits="userSpaceOnUse" color-interpolation-filters="sRGB">
<feFlood flood-opacity="0" result="BackgroundImageFix"/>
<feGaussianBlur in="BackgroundImage" stdDeviation="17"/>
<feComposite in2="SourceAlpha" operator="in" result="effect1_backgroundBlur"/>
<feBlend mode="normal" in="SourceGraphic" in2="effect1_backgroundBlur" result="shape"/>
</filter>
<linearGradient id="paint0_linear" x1="611.601" y1="441.515" x2="1153.3" y2="640.554" gradientUnits="userSpaceOnUse">
<stop offset="0.106944" stop-color="#BFDB39"/>
<stop offset="1" stop-color="#00C293"/>
</linearGradient>
<clipPath id="clip0">
<rect width="70.5117" height="70.5117" fill="white" transform="translate(882.626 171) rotate(19.576)"/>
</clipPath>
<clipPath id="clip1">
<rect width="106.434" height="106.434" fill="white" transform="translate(1301.42 163) rotate(11.6118)"/>
</clipPath>
<clipPath id="clip2">
<rect width="67.8327" height="67.8327" fill="white" transform="translate(57 228.556) rotate(-15)"/>
</clipPath>
<clipPath id="clip3">
<rect width="66.9113" height="66.9113" fill="white" transform="translate(206 185.665) rotate(-9.17132)"/>
</clipPath>
<clipPath id="clip4">
<rect width="91.5969" height="91.5969" fill="white" transform="translate(943.242 245) rotate(0.776926)"/>
</clipPath>
</defs>
</svg>
