<svg width="168" height="168" viewBox="0 0 168 168" fill="none" xmlns="http://www.w3.org/2000/svg">
<g clip-path="url(#clip0)">
<path d="M99.4061 19.5488L102.359 16.9139L99.4061 14.056C99.4061 14.056 86.5548 -3.44656 79.5198 0.610052C74.4568 3.52971 73.6752 13.1215 73.7563 19.5488L86.5813 22.5019L99.4061 19.5488Z" fill="#FF4D54"/>
<path d="M73.7555 19.5488C73.7998 23.0722 74.1033 25.6457 74.1033 25.6457L86.5806 28.5988L99.4057 25.6457L102.359 22.502L99.4057 19.5488H73.7555Z" fill="#EA4955"/>
<path d="M113.047 19.5488L110.094 16.9139L113.047 14.056C113.047 14.056 125.899 -3.44656 132.934 0.610052C137.997 3.52971 138.778 13.1215 138.697 19.5488L125.872 22.5019L113.047 19.5488Z" fill="#FF4D54"/>
<path d="M138.697 19.5488C138.652 23.0722 138.349 25.6457 138.349 25.6457L125.871 28.5988L113.046 25.6457L110.093 22.502L113.046 19.5488H138.697Z" fill="#EA4955"/>
<path d="M99.406 19.5487L106.229 22.5018L113.053 19.5487V14.0559H99.406V19.5487Z" fill="#CC353E"/>
<path d="M99.406 19.5488V25.6457L106.229 28.5988L113.053 25.6457V19.5488H99.406Z" fill="#C12131"/>
<path d="M63.3079 42.7085L106.229 39.5647L150.099 42.7085V156.822C150.099 159.628 147.824 161.903 145.018 161.903H68.3889C65.5828 161.903 63.3079 159.628 63.3079 156.822V42.7085Z" fill="#85CF99"/>
<path d="M59.9137 42.7086H153.494C155.365 42.7086 156.881 41.192 156.881 39.3213V29.033C156.881 27.1623 155.365 25.6458 153.494 25.6458H113.047L106.23 28.5989L99.4062 25.6458H59.9137C58.0431 25.6458 56.5265 27.1623 56.5265 29.033V39.3213C56.5265 41.192 58.0431 42.7086 59.9137 42.7086Z" fill="#B1E7A1"/>
<path d="M153.494 36.6118H59.9134C58.0427 36.6118 56.5261 35.0953 56.5261 33.2246V39.3215C56.5261 41.1921 58.0427 42.7087 59.9134 42.7087H153.494C155.364 42.7087 156.881 41.1921 156.881 39.3215V33.2246C156.881 35.0953 155.364 36.6118 153.494 36.6118Z" fill="#97D4A8"/>
<path d="M99.406 36.612L106.229 39.5651L113.053 36.612V25.6458H99.406V36.612Z" fill="#FF4D54"/>
<path d="M99.406 42.7084L106.23 45.6615L113.053 42.7084V36.6118H99.406V42.7084Z" fill="#EA4955"/>
<path d="M99.406 42.7085H113.053V86.4459L110.1 100.164L113.053 114.324V161.903H99.406V42.7085Z" fill="#CC353E"/>
<path d="M49.7099 76.962L52.6631 73.9311L49.7099 71.0823C49.7099 71.0823 36.8002 53.0158 29.7799 57.2053C24.6769 60.2506 23.9295 70.3253 24.0266 76.9617L36.8684 79.9148L49.7099 76.962Z" fill="#FF4D54"/>
<path d="M24.0259 76.9619C24.0774 80.4978 24.3684 83.0588 24.3684 83.0588L36.8674 86.0119L49.7092 83.0509L52.6623 80.0102L49.7092 76.9619H24.0259Z" fill="#EA4955"/>
<path d="M63.3427 76.962L60.3895 73.9311L63.3427 71.0823C63.3427 71.0823 76.2524 53.0158 83.273 57.2053C88.376 60.2506 89.1234 70.3253 89.0263 76.9617L76.1845 79.9148L63.3427 76.962Z" fill="#FF4D54"/>
<path d="M89.027 76.9619C88.9754 80.4978 88.6844 83.0588 88.6844 83.0588L76.1855 86.0119L63.3436 83.0509L60.3905 80.0102L63.3436 76.9619H89.027Z" fill="#EA4955"/>
<path d="M49.7098 76.9577L56.5296 79.9128L63.349 76.9616V71.0862L49.7098 71.0823V76.9577Z" fill="#CC353E"/>
<path d="M49.7098 76.9619V83.0506L56.5296 86.0077L63.3493 83.0585V76.9619H49.7098Z" fill="#C12131"/>
<path d="M10.8494 164.856H102.204C105.01 164.856 107.285 162.919 107.285 156.822V100.164L56.527 97.0203L5.76868 100.164V156.822C5.76835 162.919 8.04324 164.856 10.8494 164.856Z" fill="#F786CB"/>
<path d="M3.38723 97.0202H109.665C111.536 97.0202 113.052 94.6869 113.052 90.6799V86.4461C113.052 84.5754 111.536 83.0588 109.665 83.0588H63.3432L56.5287 86.012L49.709 83.0588H3.38723C1.51659 83.0585 0 84.5751 0 86.4457V90.6795C0 95.4219 1.51659 97.0202 3.38723 97.0202Z" fill="#FFA5D5"/>
<path d="M109.665 94.0672H3.38723C1.51659 94.0672 0 92.5506 0 90.6799V96.7768C0 98.6475 1.51659 100.164 3.38723 100.164H109.665C111.536 100.164 113.052 98.6475 113.052 96.7768V90.6799C113.053 92.5506 111.536 94.0672 109.665 94.0672Z" fill="#FF92D0"/>
<path d="M102.204 161.903H10.8487C8.04259 161.903 5.7677 159.628 5.7677 156.822V162.919C5.7677 165.725 8.04259 168 10.8487 168H49.7017L56.5263 164.856L63.3507 168H93.5644L97.8891 164.856L102.204 168C105.01 168 107.285 165.725 107.285 162.919V156.822C107.284 159.628 105.01 161.903 102.204 161.903Z" fill="#EF78C2"/>
<path d="M49.7017 94.0672L56.5263 97.0203L63.351 94.0672V83.0586H49.7017V94.0672Z" fill="#FF4D54"/>
<path d="M49.7017 100.164L56.5293 103.117L63.351 100.164V94.0671H49.7017V100.164Z" fill="#EA4955"/>
<path d="M49.7017 100.164H63.351V161.903L56.5263 164.856L49.7017 161.903V100.164Z" fill="#CC353E"/>
<path d="M49.7017 161.903H63.351V168H49.7017V161.903Z" fill="#C12131"/>
<path d="M118.841 108.228L121.794 105.096L118.841 102.268C118.841 102.268 108.256 88.7228 102.531 93.7067C99.0656 96.7232 98.2755 103.306 98.2131 108.228L108.525 111.181L118.841 108.228Z" fill="#FF4D54"/>
<path d="M98.2135 108.228C98.1699 111.686 98.4855 114.324 98.4855 114.324L108.283 117.278L118.841 114.324L121.794 111.276L118.841 108.228H98.2135V108.228Z" fill="#EA4955"/>
<path d="M132.058 108.228L129.105 105.096L132.058 102.268C132.058 102.268 142.643 88.7228 148.368 93.7067C151.833 96.7232 152.623 103.306 152.686 108.228L142.374 111.181L132.058 108.228Z" fill="#FF4D54"/>
<path d="M152.686 108.228C152.73 111.686 152.414 114.324 152.414 114.324L142.616 117.278L132.059 114.324L129.105 111.276L132.059 108.228H152.686V108.228Z" fill="#EA4955"/>
<path d="M118.84 108.228L125.449 111.181L132.058 108.228V102.268H118.84V108.228Z" fill="#CC353E"/>
<path d="M118.84 108.228V114.324L125.449 117.277L132.058 114.324V108.228H118.84Z" fill="#C12131"/>
<path d="M93.5655 164.856H157.335C160.141 164.856 162.416 162.919 162.416 156.822V129.637L125.45 126.493L88.4845 129.637V156.822C88.4845 162.919 90.7594 164.856 93.5655 164.856Z" fill="#FCC07E"/>
<path d="M86.2853 126.493H164.612C166.483 126.493 168 124.355 168 120.152V117.711C168 115.841 166.483 114.324 164.612 114.324H132.058L125.449 117.277L118.84 114.324H86.2857C84.415 114.324 82.8984 115.841 82.8984 117.711V120.152C82.8981 126.249 84.4147 126.493 86.2853 126.493Z" fill="#FFDE8F"/>
<path d="M164.613 123.54H86.286C84.4154 123.54 82.8988 122.023 82.8988 120.153V126.249C82.8988 128.12 84.4154 129.637 86.286 129.637H164.613C166.484 129.637 168 128.12 168 126.249V120.153C168 122.024 166.484 123.54 164.613 123.54Z" fill="#F9CD7F"/>
<path d="M157.334 161.903H93.5655C90.7594 161.903 88.4845 159.628 88.4845 156.822V162.919C88.4845 165.725 90.7594 168 93.5655 168H118.841L125.45 164.856L132.059 168H157.334C160.14 168 162.415 165.725 162.415 162.919V156.822C162.415 159.629 160.14 161.903 157.334 161.903Z" fill="#F9B067"/>
<path d="M118.84 123.54L125.449 126.493L132.058 123.54V114.324H118.84V123.54Z" fill="#FF4D54"/>
<path d="M118.84 129.637L125.449 132.59L132.058 129.637V123.54H118.84V129.637Z" fill="#EA4955"/>
<path d="M118.84 129.637H132.058V161.903L125.45 164.856L118.84 161.903V129.637Z" fill="#CC353E"/>
<path d="M118.84 161.903H132.058V168H118.84V161.903Z" fill="#C12131"/>
</g>
<defs>
<clipPath id="clip0">
<rect width="168" height="168" fill="white"/>
</clipPath>
</defs>
</svg>
