<svg width="192" height="192" viewBox="0 0 192 192" fill="none" xmlns="http://www.w3.org/2000/svg">
<g clip-path="url(#clip0)">
<path d="M139.557 52.6626C139.557 43.5073 132.281 36.0557 123.196 35.7627V31.3931H145.399C154.74 31.3931 162.313 38.9648 162.313 48.3062V80.417C162.313 81.4072 161.509 82.21 160.519 82.21C148.941 82.21 139.556 72.8247 139.556 61.248V52.6626H139.557Z" fill="#FFA300"/>
<path d="M130.036 42.4937H131.645C134.2 42.4937 136.27 40.4224 136.27 37.8691V31.3696C136.27 28.8164 134.199 26.7451 131.645 26.7451H130.036C127.481 26.7451 125.411 28.8164 125.411 31.3696V37.8691C125.411 40.4224 127.481 42.4937 130.036 42.4937Z" fill="#DD5298"/>
<path d="M145.399 31.3931H135.057C144.398 31.3931 151.97 38.9648 151.97 48.3062V80.3877C154.582 81.5552 157.474 82.21 160.519 82.21C161.509 82.21 162.314 81.4072 162.314 80.4155V48.3062C162.314 38.9648 154.74 31.3931 145.399 31.3931Z" fill="#FF8B00"/>
<path d="M131.528 26.7451H130.151C129.747 26.7451 129.357 26.8022 128.982 26.8975C131.035 27.4189 132.554 29.272 132.554 31.4868V37.7534C132.554 39.9668 131.035 41.8213 128.982 42.3428C129.357 42.438 129.747 42.4937 130.151 42.4937H131.528C134.147 42.4937 136.27 40.3711 136.27 37.7534V31.4868C136.27 28.8677 134.147 26.7451 131.528 26.7451Z" fill="#C93F84"/>
<path d="M52.9277 52.6626C52.9277 43.5073 60.2021 36.0557 69.2871 35.7627V31.3931H47.0845C37.7432 31.3931 30.1699 38.9648 30.1699 48.3062V80.417C30.1699 81.4072 30.9741 82.21 31.9644 82.21C43.5425 82.21 52.9277 72.8247 52.9277 61.248V52.6626Z" fill="#FFA300"/>
<path d="M58.9453 35.7627C49.8604 36.0557 42.5845 43.5073 42.5845 52.6626V61.248C42.5845 69.7793 37.4854 77.1152 30.1699 80.3877V80.417C30.1699 81.4072 30.9741 82.21 31.9644 82.21C43.5425 82.21 52.9277 72.8247 52.9277 61.248V52.6626C52.9277 43.5073 60.2021 36.0557 69.2871 35.7627H58.9453Z" fill="#FF8B00"/>
<path d="M62.4478 42.4937H60.8379C58.2847 42.4937 56.2134 40.4224 56.2134 37.8691V31.3696C56.2134 28.8164 58.2847 26.7451 60.8379 26.7451H62.4478C65.0025 26.7451 67.0723 28.8164 67.0723 31.3696V37.8691C67.0723 40.4224 65.0025 42.4937 62.4478 42.4937Z" fill="#DD5298"/>
<path d="M62.332 26.7451H60.9551C60.5508 26.7451 60.1597 26.8022 59.7861 26.8975C61.8369 27.4189 63.3574 29.272 63.3574 31.4868V37.7534C63.3574 39.9668 61.8369 41.8213 59.7861 42.3428C60.1597 42.438 60.5508 42.4937 60.9551 42.4937H62.332C64.9497 42.4937 67.0722 40.3711 67.0722 37.7534V31.4868C67.0722 28.8677 64.9497 26.7451 62.332 26.7451Z" fill="#C93F84"/>
<path d="M134.014 55.3022H133.298V49.5293C133.298 31.4941 118.677 16.875 100.644 16.875H91.9395C73.9043 16.875 59.2852 31.4941 59.2852 49.5293V55.3022H57.6768C53.8184 55.3022 50.6909 58.4312 50.6909 62.2896V65.5107C50.6909 70.8721 55.0371 75.2183 60.3985 75.2183C60.8233 75.2183 61.2393 75.1743 61.6436 75.1011C66.4732 87.0996 78.2124 95.5723 91.9395 95.5723H100.644C114.357 95.5723 126.089 87.1128 130.928 75.1318C131.284 75.1831 131.646 75.2183 132.018 75.2183C137.31 75.2183 141.601 70.9277 141.601 65.6353V62.8901C141.602 58.6992 138.205 55.3022 134.014 55.3022Z" fill="#FFC5B2"/>
<path d="M134.014 55.3022H133.298V49.5293C133.298 31.4941 118.677 16.875 100.644 16.875H91.9395C91.7886 16.875 91.6421 16.8838 91.4927 16.8867C109.32 17.127 123.699 31.645 123.699 49.5293V62.918C123.699 80.8022 109.32 95.3203 91.4927 95.5605C91.6421 95.5635 91.7886 95.5723 91.9395 95.5723H100.644C114.357 95.5723 126.089 87.1128 130.928 75.1318C131.284 75.1831 131.646 75.2183 132.018 75.2183C137.31 75.2183 141.601 70.9277 141.601 65.6353V62.8901C141.602 58.6992 138.205 55.3022 134.014 55.3022Z" fill="#FFAE92"/>
<path d="M85.5674 40.7183H107.016C117.794 40.7183 127.351 45.9434 133.298 53.9971V49.5293C133.298 31.4941 118.679 16.875 100.644 16.875H91.9395C73.9043 16.875 59.2852 31.4941 59.2852 49.5293V53.9971C65.2324 45.9434 74.7876 40.7183 85.5674 40.7183Z" fill="#FFA300"/>
<path d="M100.644 16.875H91.9395C90.7383 16.875 89.5532 16.9438 88.3858 17.0713C102.286 18.5757 113.561 28.8003 116.644 42.1626C123.388 44.2412 129.199 48.4482 133.298 53.9971V49.5293C133.298 31.4941 118.677 16.875 100.644 16.875Z" fill="#FF8B00"/>
<path d="M86.6938 59.7246C86.6938 62.0933 84.7734 64.0137 82.4033 64.0137C80.0347 64.0137 78.1142 62.0933 78.1142 59.7246C78.1142 57.3545 80.0347 55.4341 82.4033 55.4341C84.7734 55.4341 86.6938 57.3545 86.6938 59.7246Z" fill="#BC693F"/>
<path d="M114.467 59.7246C114.467 62.0933 112.548 64.0137 110.178 64.0137C107.81 64.0137 105.889 62.0933 105.889 59.7246C105.889 57.3545 107.81 55.4341 110.178 55.4341C112.548 55.4341 114.467 57.3545 114.467 59.7246Z" fill="#BC693F"/>
<path d="M96.2915 84.5537C103.736 84.5537 109.865 78.9243 110.656 71.6909C110.748 70.8457 110.086 70.103 109.235 70.103H83.3482C82.4971 70.103 81.835 70.8457 81.9273 71.6909C82.7183 78.9243 88.8472 84.5537 96.2915 84.5537Z" fill="white"/>
<path d="M184.412 135.437H183.696V129.664C183.696 111.628 169.077 97.0093 151.042 97.0093H142.337C124.304 97.0093 109.683 111.628 109.683 129.664V135.437H108.076C104.216 135.437 101.089 138.565 101.089 142.424V145.645C101.089 151.006 105.435 155.353 110.796 155.353C111.223 155.353 111.637 155.309 112.042 155.235C116.871 167.232 128.612 175.707 142.337 175.707H151.042C164.757 175.707 176.489 167.247 181.326 155.266C181.683 155.317 182.045 155.353 182.416 155.353C187.709 155.353 192 151.062 192 145.77V143.024C192 138.833 188.603 135.437 184.412 135.437Z" fill="#FFC5B2"/>
<path d="M184.412 135.437H183.696V129.664C183.696 111.628 169.077 97.0093 151.042 97.0093H142.337C142.188 97.0093 142.04 97.0181 141.891 97.021C159.718 97.2612 174.098 111.779 174.098 129.664V143.052C174.098 160.937 159.718 175.455 141.891 175.695C142.04 175.698 142.188 175.707 142.337 175.707H151.042C164.757 175.707 176.489 167.247 181.326 155.266C181.683 155.317 182.045 155.353 182.416 155.353C187.709 155.353 192 151.062 192 145.77V143.024C192 138.833 188.603 135.437 184.412 135.437Z" fill="#FFAE92"/>
<path d="M135.965 120.853H157.414C168.193 120.853 177.749 126.078 183.696 134.131V129.664C183.696 111.628 169.077 97.0093 151.041 97.0093H142.337C124.304 97.0093 109.683 111.628 109.683 129.664V134.131C115.63 126.078 125.187 120.853 135.965 120.853Z" fill="#FFC50D"/>
<path d="M137.092 139.857C137.092 142.228 135.171 144.148 132.803 144.148C130.434 144.148 128.514 142.228 128.514 139.857C128.514 137.489 130.434 135.568 132.803 135.568C135.171 135.568 137.092 137.489 137.092 139.857Z" fill="#257EDF"/>
<path d="M164.867 139.857C164.867 142.228 162.946 144.148 160.578 144.148C158.209 144.148 156.289 142.228 156.289 139.857C156.289 137.489 158.209 135.568 160.578 135.568C162.946 135.568 164.867 137.489 164.867 139.857Z" fill="#257EDF"/>
<path d="M146.689 164.688C154.134 164.688 160.263 159.059 161.054 151.825C161.146 150.979 160.484 150.237 159.633 150.237H133.746C132.897 150.237 132.233 150.979 132.325 151.825C133.116 159.059 139.245 164.688 146.689 164.688Z" fill="white"/>
<path d="M83.3232 135.437H82.6069V129.664C82.6069 111.628 67.9878 97.0093 49.9526 97.0093H41.2485C23.2134 97.0093 8.59424 111.628 8.59424 129.664V135.437H6.9873C3.12744 135.437 0 138.565 0 142.424V145.645C0 151.006 4.34619 155.353 9.70752 155.353C10.1338 155.353 10.5483 155.309 10.9526 155.235C15.7822 167.232 27.5229 175.707 41.2485 175.707H49.9526C63.6665 175.707 75.3999 167.247 80.2368 155.266C80.5928 155.317 80.9561 155.353 81.3267 155.353C86.6191 155.353 90.9111 151.062 90.9111 145.77V143.024C90.9111 138.833 87.5142 135.437 83.3232 135.437Z" fill="#BC663B"/>
<path d="M83.3232 135.437H82.6069V129.664C82.6069 111.628 67.9878 97.0093 49.9526 97.0093H41.2485C41.0991 97.0093 40.9512 97.0181 40.8017 97.021C58.6289 97.2612 73.0093 111.779 73.0093 129.664V143.052C73.0093 160.937 58.6289 175.455 40.8017 175.695C40.9512 175.698 41.0991 175.707 41.2485 175.707H49.9526C63.6665 175.707 75.3999 167.247 80.2368 155.266C80.5928 155.317 80.956 155.353 81.3266 155.353C86.6191 155.353 90.9111 151.062 90.9111 145.77V143.024C90.9111 138.833 87.5141 135.437 83.3232 135.437Z" fill="#AD5731"/>
<path d="M34.8765 120.853H56.3247C67.1045 120.853 76.6597 126.078 82.6069 134.131V129.664C82.6069 111.628 67.9878 97.0093 49.9526 97.0093H41.2485C23.2148 97.0093 8.59424 111.628 8.59424 129.664V134.131C14.5415 126.078 24.0981 120.853 34.8765 120.853Z" fill="#824A25"/>
<path d="M151.041 97.0093H142.337C141.242 97.0093 140.159 97.0649 139.09 97.1704C153.204 98.5649 164.667 108.945 167.701 122.511C174.164 124.655 179.732 128.764 183.696 134.131V129.664C183.696 111.628 169.077 97.0093 151.041 97.0093Z" fill="#FFA300"/>
<path d="M49.9526 97.0093H41.2485C40.1528 97.0093 39.0688 97.0649 38.0009 97.1704C52.1147 98.5649 63.5786 108.945 66.6123 122.511C73.0752 124.655 78.643 128.764 82.6069 134.131V129.664C82.6069 111.628 67.9878 97.0093 49.9526 97.0093Z" fill="#703E23"/>
<path d="M36.0029 139.857C36.0029 142.228 34.0825 144.148 31.7139 144.148C29.3452 144.148 27.4248 142.228 27.4248 139.857C27.4248 137.489 29.3452 135.568 31.7139 135.568C34.0825 135.568 36.0029 137.489 36.0029 139.857Z" fill="#703E23"/>
<path d="M63.7778 139.857C63.7778 142.228 61.8574 144.148 59.4887 144.148C57.1186 144.148 55.1982 142.228 55.1982 139.857C55.1982 137.489 57.1186 135.568 59.4887 135.568C61.8574 135.568 63.7778 137.489 63.7778 139.857Z" fill="#703E23"/>
<path d="M45.6006 164.688C53.0449 164.688 59.1738 159.059 59.9648 151.825C60.0571 150.979 59.395 150.237 58.5439 150.237H32.6572C31.8061 150.237 31.144 150.979 31.2363 151.825C32.0273 159.059 38.1562 164.688 45.6006 164.688Z" fill="white"/>
</g>
<defs>
<clipPath id="clip0">
<rect width="192" height="192" fill="white"/>
</clipPath>
</defs>
</svg>
