<svg width="38" height="38" viewBox="0 0 38 38" fill="none" xmlns="http://www.w3.org/2000/svg">
<g clip-path="url(#clip0)">
<path d="M3.65693 27.2207L12.3653 35.9291C11.1476 36.425 9.81077 36.5506 8.52207 36.2903C7.23336 36.0299 6.0501 35.3952 5.12045 34.4656C4.19079 33.5359 3.55606 32.3526 3.29573 31.0639C3.0354 29.7752 3.16104 28.4384 3.65693 27.2207ZM11.6005 3.13508C12.012 3.05109 12.3733 2.80707 12.605 2.45669C12.8366 2.10631 12.9195 1.67827 12.8355 1.26675C12.7515 0.855218 12.5075 0.493908 12.1571 0.262301C11.8067 0.0306935 11.3787 -0.0522398 10.9672 0.0317455C6.72123 0.775588 2.91912 3.11156 0.336678 6.563C0.10231 6.90116 0.00878247 7.31728 0.075906 7.72321C0.14303 8.12914 0.365532 8.493 0.696284 8.73772C1.02704 8.98244 1.44006 9.0888 1.84787 9.03427C2.25569 8.97974 2.62626 8.7686 2.88109 8.44558C4.9935 5.61668 8.11771 3.7139 11.6005 3.13508ZM36.7328 25.3698C36.3227 25.2799 35.8937 25.3564 35.5401 25.5826C35.1865 25.8089 34.9372 26.1663 34.847 26.5763C34.2455 29.9928 32.3681 33.053 29.5951 35.1374C29.2558 35.3852 29.0288 35.7576 28.9641 36.1727C28.8993 36.5878 29.0022 37.0116 29.2499 37.3509C29.4977 37.6902 29.8701 37.9172 30.2852 37.9819C30.7003 38.0467 31.1241 37.9438 31.4634 37.6961C34.852 35.1491 37.1626 31.4244 37.9393 27.2572C37.984 27.054 37.9884 26.844 37.952 26.6392C37.9156 26.4344 37.8391 26.2388 37.7271 26.0635C37.6151 25.8882 37.4696 25.7367 37.299 25.6177C37.1283 25.4987 36.9359 25.4145 36.7328 25.3698ZM31.9305 8.30783L34.3688 5.86949C34.5201 5.72344 34.6407 5.54873 34.7237 5.35555C34.8067 5.16238 34.8503 4.95461 34.8522 4.74438C34.854 4.53415 34.8139 4.32565 34.7343 4.13107C34.6547 3.93648 34.5371 3.7597 34.3885 3.61104C34.2398 3.46237 34.063 3.34481 33.8684 3.26519C33.6739 3.18558 33.4654 3.14552 33.2551 3.14735C33.0449 3.14918 32.8371 3.19285 32.644 3.27583C32.4508 3.35882 32.2761 3.47944 32.13 3.63066L29.6885 6.07216C27.5025 4.33511 24.8282 3.32492 22.0397 3.18297C19.2512 3.04102 16.4881 3.7744 14.137 5.2805L5.42868 10.6638C4.40751 11.2949 3.54235 12.1489 2.89799 13.1617C2.25363 14.1746 1.84676 15.3201 1.70786 16.5125C1.56896 17.7048 1.70162 18.9132 2.09592 20.047C2.49021 21.1809 3.13592 22.2108 3.98468 23.0597L15.0031 34.0782C15.8536 34.9289 16.8859 35.5757 18.0223 35.9701C19.1588 36.3644 20.3699 36.496 21.5645 36.3548C22.7591 36.2137 23.9062 35.8036 24.9195 35.1553C25.9328 34.507 26.786 33.6375 27.4148 32.612L33.1148 23.3083C34.425 20.9717 35.0119 18.2987 34.801 15.6282C34.5902 12.9577 33.5911 10.4099 31.9305 8.30783Z" fill="#66B8EC"/>
</g>
<defs>
<clipPath id="clip0">
<rect width="38" height="38" fill="white"/>
</clipPath>
</defs>
</svg>
