<svg width="172" height="172" viewBox="0 0 172 172" fill="none" xmlns="http://www.w3.org/2000/svg">
<path d="M136.414 8.89648L41.5172 41.5172V80.0689L136.414 47.4482L157.172 17.793L136.414 8.89648Z" fill="#F7AB48"/>
<path d="M94.8966 23.1696V0H77.1035V29.2845L94.8966 23.1696Z" fill="#612F1A"/>
<path d="M35.5863 59.3103L41.5173 61.3476V80.0689L68.7471 70.7105L130.483 91.931V130.483L35.5863 97.862L14.8276 68.2069L35.5863 59.3103Z" fill="#8A4325"/>
<path d="M94.8966 79.6982V61.7212L77.1035 67.8361V73.5833L94.8966 79.6982Z" fill="#612F1A"/>
<path d="M153.836 154.207H20.7587V118.621H95.9754L130.483 130.483V118.621H153.836V154.207Z" fill="#F7AB48"/>
<path d="M94.8966 118.621V118.25L77.1035 112.135V118.621H94.8966Z" fill="#612F1A"/>
<path d="M77.1035 154.207H94.8966V172H77.1035V154.207Z" fill="#612F1A"/>
</svg>
