<svg width="180" height="180" viewBox="0 0 180 180" fill="none" xmlns="http://www.w3.org/2000/svg">
<g clip-path="url(#clip0)" filter="url(#filter0_d)">
<path d="M64.8945 10.621C74.4385 6.26428 85.892 10.8742 90.4765 20.9173C90.9663 21.9906 91.3521 23.0829 91.6492 24.1824L91.3293 25.739L64.8507 45.8665L63.6943 45.6289C60.425 43.5749 57.667 40.5335 55.9144 36.6945C51.33 26.6508 55.3504 14.9774 64.8945 10.621Z" fill="#E39B74"/>
<path d="M64.8461 34.6982C60.3838 24.9231 64.0757 13.606 73.0763 8.99193C70.3267 8.89808 67.5374 9.41413 64.8943 10.6208C55.3501 14.9775 51.3297 26.6508 55.9142 36.6939C57.6665 40.5329 60.4247 43.5747 63.6942 45.6283L64.8505 45.866L70.1743 41.8193C67.9829 39.9306 66.1399 37.5329 64.8461 34.6982Z" fill="#DD8858"/>
<path d="M69.2613 20.1885C74.4872 17.8028 80.8623 20.4743 83.7703 26.1633L83.2416 27.4126L68.1209 39.5881L67.0566 39.3694C66.0387 38.3163 65.1669 37.0604 64.5121 35.626C61.7433 29.5612 63.8696 22.6496 69.2613 20.1885Z" fill="#DD8858"/>
<path d="M71.7785 33.3663C69.4366 28.2363 70.5982 22.5007 74.2748 19.365C72.5845 19.2014 70.8688 19.455 69.2618 20.1888C63.8704 22.6501 61.7438 29.5616 64.5123 35.6263C65.1671 37.0607 66.0389 38.3166 67.0568 39.3697L68.1211 39.5884L73.0722 35.6018C72.5817 34.9145 72.145 34.1696 71.7785 33.3663Z" fill="#DA7E4A"/>
<path d="M144.113 26.8993C137.061 19.1322 124.717 18.8523 116.544 26.2738C115.671 27.067 114.886 27.9187 114.179 28.812L113.859 30.3685L130.256 59.3062L131.412 59.5439C135.226 58.9455 138.96 57.238 142.085 54.4012C150.258 46.979 151.167 34.6662 144.113 26.8993Z" fill="#E39B74"/>
<path d="M120.215 35.4715C128.388 28.05 140.731 28.3301 147.784 36.097C148.125 36.4725 148.441 36.8618 148.745 37.2572C148.335 33.492 146.806 29.8642 144.114 26.8991C137.061 19.132 124.718 18.852 116.544 26.2736C115.671 27.0668 114.886 27.9184 114.179 28.8118L113.859 30.3683L118.051 37.7651C118.705 36.9613 119.422 36.1914 120.215 35.4715Z" fill="#DD8858"/>
<path d="M136.327 33.9695C132.465 29.7164 125.553 29.6576 120.637 33.739L120.631 35.0955L129.725 52.2469L130.789 52.4656C132.14 51.8992 133.436 51.0888 134.604 50.0288C139.54 45.5473 140.311 38.3572 136.327 33.9695Z" fill="#DD8858"/>
<path d="M138.869 41.0462C138.937 38.4555 138.109 35.9321 136.327 33.9695C132.465 29.7164 125.553 29.6576 120.638 33.739L120.631 35.0955L123.851 41.1673C128.551 37.3975 134.984 37.3418 138.869 41.0462Z" fill="#DA7E4A"/>
<path d="M93.55 139.998L66.6727 134.475L60.3038 151.909L60.6402 153.076C64.9861 156.271 70.0057 158.578 75.5387 159.715C81.072 160.852 86.5946 160.711 91.8485 159.488L92.5336 157.906L93.55 139.998Z" fill="#CB6C35"/>
<path d="M71.0499 135.374L66.6727 134.475L60.3038 151.909L60.6402 153.076C64.9861 156.271 70.0058 158.578 75.5387 159.715C80.2282 160.679 84.9096 160.721 89.4266 159.968C80.4302 155.182 73.7362 146.188 71.0499 135.374Z" fill="#AE5E2E"/>
<path d="M109.316 91.1989C109.316 91.1989 97.2543 93.8804 89.399 92.2663C81.5437 90.6522 71.7522 83.3237 71.7522 83.3237L61.4323 96.4487L56.8485 118.756L65.5038 134.657L66.8378 135.466C70.3726 138.391 74.583 140.491 79.2905 141.458C83.9981 142.425 88.6956 142.156 93.0973 140.862L94.7671 140.696L108.431 129.241L113.162 106.218L109.316 91.1989Z" fill="#E39B74"/>
<path d="M69.9977 120.026C71.2423 107.93 77.1081 97.5816 85.3607 91.0397C78.5494 88.4088 71.7522 83.3237 71.7522 83.3237L61.4323 96.4487L56.8485 118.756L65.5038 134.657L66.8378 135.466C68.4552 136.804 70.2155 137.967 72.0988 138.931C70.1116 133.14 69.3107 126.701 69.9977 120.026Z" fill="#DD8858"/>
<path d="M71.8612 84.4936L71.7536 83.3243L65.1814 73.6444L64.0725 73.4166C56.2273 76.3092 41.5772 83.5607 37.1426 98.4347C35.7344 103.158 35.2228 107.188 35.2615 110.59C35.2883 112.932 35.9268 115.09 37.0042 116.947L38.5109 117.257L57.7722 118.831L58.6259 118.661C60.6545 116.173 61.7681 112.957 61.5654 109.564C61.1271 102.23 62.7048 92.3181 71.8612 84.4936Z" fill="#CB6C35"/>
<path d="M134.99 118.541C136.78 103.123 126.177 90.6824 120.108 84.9309L118.491 84.5987L108.847 90.7509L108.582 92.0392C113.911 102.84 111.453 112.571 108.158 119.138C106.633 122.177 106.388 125.57 107.272 128.658L108.186 129.55L126.69 135.377L127.817 135.608C129.54 134.327 130.977 132.595 131.926 130.453C133.303 127.342 134.422 123.436 134.99 118.541Z" fill="#CB6C35"/>
<path d="M64.8559 73.5776L64.0721 73.4166C56.227 76.3092 41.5768 83.5607 37.1422 98.4347C35.734 103.158 35.2224 107.188 35.2612 110.59C35.2879 112.932 35.9264 115.09 37.0038 116.947L38.5106 117.257L47.6323 118.002C46.946 116.452 46.547 114.736 46.5261 112.904C46.4873 109.503 46.9989 105.472 48.4072 100.75C51.5857 90.0883 60.0119 83.3441 67.4194 79.3133L67.5801 78.5313L64.8559 73.5776Z" fill="#AE5E2E"/>
<path d="M107.272 128.657L107.899 129.269L119.164 131.584L118.537 130.972C117.654 127.885 117.899 124.491 119.423 121.452C122.718 114.885 125.176 105.155 119.848 94.3535L120.112 93.0652L124.891 90.017C123.193 87.989 121.526 86.275 120.108 84.9304L118.491 84.5983L108.847 90.7504L108.582 92.0387C113.911 102.84 111.453 112.571 108.158 119.137C106.633 122.176 106.389 125.57 107.272 128.657Z" fill="#AE5E2E"/>
<path d="M89.1337 93.56C108.173 97.4723 126.779 85.2094 130.691 66.1701C134.603 47.1308 122.341 28.5249 103.301 24.6126C84.262 20.7003 65.6561 32.9632 61.7438 52.0025C57.8315 71.0418 70.0944 89.6477 89.1337 93.56Z" fill="#CB6C35"/>
<path d="M75.1193 54.7506C78.5613 37.9996 93.3775 26.4965 109.856 26.637C107.78 25.7672 105.59 25.0824 103.302 24.6121C84.2627 20.6999 65.6567 32.9628 61.7444 52.002C57.8322 71.0413 70.0947 89.6475 89.1342 93.5598C91.4228 94.0301 93.7045 94.2643 95.9555 94.2833C80.7569 87.9151 71.6772 71.5017 75.1193 54.7506Z" fill="#AE5E2E"/>
<path d="M50.1234 158.519C60.8924 157.12 68.3363 146.087 66.7498 133.876C65.1633 121.665 55.1472 112.9 44.3782 114.299C33.6093 115.698 26.1654 126.731 27.7519 138.942C29.3384 151.153 39.3545 159.918 50.1234 158.519Z" fill="#E39B74"/>
<path d="M127.825 159.44C134.097 148.844 131.607 135.77 122.263 130.237C112.918 124.705 100.257 128.81 93.9844 139.406C87.7115 150.002 90.2016 163.077 99.5463 168.609C108.891 174.141 121.552 170.036 127.825 159.44Z" fill="#E39B74"/>
<path d="M41.5124 141.71C39.9935 130.006 46.7777 119.391 56.8299 117.309C53.1627 114.851 48.813 113.665 44.33 114.247C33.5671 115.644 26.1259 126.669 27.7097 138.873C29.2935 151.077 39.3024 159.838 50.065 158.441C50.5057 158.384 50.9385 158.305 51.3678 158.216C46.2311 154.774 42.4362 148.83 41.5124 141.71Z" fill="#DD8858"/>
<path d="M107.693 142.242C111.35 136.063 117.18 132.097 123.258 130.959C122.899 130.708 122.532 130.465 122.15 130.238C112.81 124.711 100.157 128.815 93.8899 139.406C87.6225 149.996 90.1128 163.063 99.4529 168.59C103.343 170.893 107.808 171.519 112.147 170.706C103.731 164.829 101.682 152.399 107.693 142.242Z" fill="#DD8858"/>
<path d="M103.523 61.0829L88.7173 58.0406C81.6427 58.7804 75.9965 62.6737 74.836 68.3212C73.2789 75.8989 80.3865 83.762 90.7115 85.8836C101.036 88.0053 110.669 83.5822 112.226 76.0042C113.386 70.3568 109.733 64.5528 103.523 61.0829Z" fill="#E39B74"/>
<path d="M89.4144 71.3168C90.5749 65.6694 96.221 61.7764 103.296 61.0362L88.7173 58.0406C81.6427 58.7804 75.9965 62.6737 74.836 68.3212C73.2789 75.8989 80.3865 83.762 90.7115 85.8836C93.2974 86.415 95.8399 86.5355 98.223 86.2991C91.9481 82.8364 88.2473 76.9966 89.4144 71.3168Z" fill="#DD8858"/>
<path d="M99.9013 74.972C98.3513 75.5448 96.7348 75.8124 95.1321 75.7836L96.891 67.2238C97.1464 65.9809 96.3459 64.7664 95.103 64.511C93.8602 64.2556 92.6456 65.0561 92.3903 66.2989L90.6313 74.8588C89.1471 74.2533 87.7669 73.3695 86.5683 72.2323C85.6482 71.3592 84.1938 71.3974 83.3202 72.3174C82.4469 73.2378 82.4851 74.6918 83.4054 75.5655C88.3067 80.2167 95.1963 81.6093 101.494 79.2824C102.684 78.8425 103.293 77.5212 102.853 76.331C102.413 75.1405 101.092 74.532 99.9013 74.972Z" fill="#CB6C35"/>
<path d="M121.154 56.8226C120.666 54.2961 118.511 52.2231 115.792 51.6644C113.073 51.1058 110.275 52.161 108.83 54.2902C108.118 55.3402 108.391 56.7688 109.441 57.4815C110.491 58.1939 111.92 57.9207 112.633 56.8705C112.967 56.3781 113.808 55.9476 114.867 56.1652C115.926 56.3828 116.53 57.1104 116.643 57.6945C116.884 58.9401 118.088 59.7549 119.335 59.5145C120.58 59.2738 121.395 58.0687 121.154 56.8226Z" fill="#924D24"/>
<path d="M81.1563 44.5472C78.4373 43.9885 75.6395 45.0438 74.1947 47.1733C73.4823 48.2233 73.7558 49.6519 74.8058 50.3643C75.8558 51.0764 77.2844 50.8032 77.9971 49.753C78.3311 49.261 79.1727 48.8304 80.2318 49.048C81.2906 49.2656 81.8945 49.9932 82.0073 50.5774C82.248 51.8229 83.4524 52.6377 84.6991 52.3973C85.945 52.1563 86.7596 50.9513 86.519 49.7055C86.03 47.1789 83.875 45.1059 81.1563 44.5472Z" fill="#924D24"/>
<path d="M94.2971 68.4292C98.5871 69.3107 102.691 66.979 103.463 63.2212C104.235 59.4634 101.383 55.7025 97.0934 54.821C92.8035 53.9395 88.6998 56.2712 87.9277 60.0289C87.1555 63.7867 90.0072 67.5477 94.2971 68.4292Z" fill="#695D67"/>
<path d="M95.4667 61.578C95.9926 59.0186 98.0644 57.122 100.687 56.4503C99.6828 55.6768 98.4618 55.102 97.0937 54.8209C92.8039 53.9394 88.7004 56.2713 87.9283 60.029C87.1561 63.7866 90.0076 67.5476 94.2975 68.4291C95.6656 68.7102 97.0143 68.6632 98.2425 68.3488C96.0968 66.6972 94.9407 64.1374 95.4667 61.578Z" fill="#544E55"/>
</g>
<defs>
<filter id="filter0_d" x="-3.99951" y="0" width="187.775" height="187.775" filterUnits="userSpaceOnUse" color-interpolation-filters="sRGB">
<feFlood flood-opacity="0" result="BackgroundImageFix"/>
<feColorMatrix in="SourceAlpha" type="matrix" values="0 0 0 0 0 0 0 0 0 0 0 0 0 0 0 0 0 0 127 0" result="hardAlpha"/>
<feOffset dy="4"/>
<feGaussianBlur stdDeviation="2"/>
<feComposite in2="hardAlpha" operator="out"/>
<feColorMatrix type="matrix" values="0 0 0 0 0 0 0 0 0 0 0 0 0 0 0 0 0 0 0.25 0"/>
<feBlend mode="normal" in2="BackgroundImageFix" result="effect1_dropShadow"/>
<feBlend mode="normal" in="SourceGraphic" in2="effect1_dropShadow" result="shape"/>
</filter>
<clipPath id="clip0">
<rect width="152.247" height="152.247" fill="white" transform="translate(30.6445) rotate(11.6118)"/>
</clipPath>
</defs>
</svg>
