<svg width="175" height="49" viewBox="0 0 175 49" fill="none" xmlns="http://www.w3.org/2000/svg">
<path d="M13.1831 11.3508C13.1831 14.991 10.2321 17.9424 6.59155 17.9424C2.95135 17.9424 0 14.991 0 11.3508C0 7.71023 2.95135 4.75928 6.59155 4.75928C10.2321 4.75928 13.1831 7.71023 13.1831 11.3508Z" fill="#66B8EC"/>
<path d="M53.0786 11.3508C53.0786 14.991 50.1272 17.9424 46.4871 17.9424C42.8465 17.9424 39.8955 14.991 39.8955 11.3508C39.8955 7.71023 42.8465 4.75928 46.4871 4.75928C50.1272 4.75928 53.0786 7.71023 53.0786 11.3508Z" fill="#66B8EC"/>
<path fill-rule="evenodd" clip-rule="evenodd" d="M26.5395 3.15137C38.7381 3.15137 48.6269 11.6734 48.6269 22.1857C48.6269 32.6981 38.7381 41.2201 26.5395 41.2201C14.3409 41.2201 4.45215 32.6981 4.45215 22.1857C4.45215 11.6734 14.3409 3.15137 26.5395 3.15137ZM34.3524 20.8348C34.3524 21.2774 34.7112 21.6358 35.1534 21.6358C35.596 21.6358 35.9544 21.2774 35.9544 20.8348V19.5053C35.9544 19.0627 35.596 18.7043 35.1534 18.7043C34.7112 18.7043 34.3524 19.0627 34.3524 19.5053V20.8348ZM17.9258 21.6358C17.4832 21.6358 17.1248 21.2774 17.1248 20.8348V19.5053C17.1248 19.0627 17.4832 18.7043 17.9258 18.7043C18.368 18.7043 18.7268 19.0627 18.7268 19.5053V20.8348C18.7268 21.2774 18.368 21.6358 17.9258 21.6358ZM26.5396 21.503C28.4396 21.503 29.9801 22.8345 29.9801 24.4774C29.9801 26.1199 28.4396 27.4519 26.5396 27.4519C24.6395 27.4519 23.099 26.1199 23.099 24.4774C23.099 22.8345 24.6395 21.503 26.5396 21.503Z" fill="#66B8EC"/>
<path d="M80.1886 37.3341H79.6039C78.7407 37.3341 77.9193 37.3759 77.1397 37.4594C76.374 37.5569 75.5527 37.6891 74.6756 37.8562C74.8566 34.7934 74.9958 31.9186 75.0933 29.2317C75.1907 26.5309 75.2394 23.9137 75.2394 21.3799C75.2394 18.1362 75.1559 14.9342 74.9888 11.774L69.7265 12.1499C69.7125 11.6765 69.6986 11.245 69.6847 10.8551C69.6708 10.4514 69.6499 10.0686 69.622 9.70661C69.5942 9.33073 69.5594 8.95484 69.5176 8.57896C69.4759 8.18915 69.4271 7.75758 69.3715 7.28425H71.8982C73.012 7.28425 74.0979 7.27729 75.1559 7.26336C76.2279 7.24944 77.2929 7.22856 78.3509 7.20072C79.4229 7.17287 80.5018 7.13807 81.5877 7.0963C82.6875 7.05454 83.8221 6.99885 84.9915 6.92925C84.9219 7.63925 84.8732 8.24484 84.8454 8.74602C84.8314 9.23328 84.8245 9.74142 84.8245 10.2704V11.3772L79.6874 11.5025C79.6456 12.839 79.6178 14.1546 79.6039 15.4493C79.6039 16.7301 79.6039 18.0248 79.6039 19.3334C79.6039 22.3684 79.6526 25.3754 79.75 28.3547C79.8475 31.3339 79.9937 34.327 80.1886 37.3341ZM93.0939 38.1903C91.7157 38.1903 90.5254 37.891 89.523 37.2924C88.5346 36.6937 87.7132 35.8584 87.0589 34.7865C86.4185 33.7145 85.9452 32.4407 85.6389 30.965C85.3326 29.4893 85.1795 27.8813 85.1795 26.1411C85.1795 24.1225 85.3605 22.2709 85.7224 20.5864C86.0844 18.9019 86.6134 17.454 87.3095 16.2428C88.0195 15.0316 88.8896 14.0919 89.9198 13.4237C90.9639 12.7415 92.1612 12.4005 93.5116 12.4005C94.8759 12.4005 96.0523 12.6858 97.0407 13.2566C98.0292 13.8274 98.8436 14.6279 99.484 15.6581C100.138 16.6883 100.619 17.9204 100.925 19.3543C101.231 20.7882 101.384 22.3684 101.384 24.0946C101.384 24.9856 101.329 25.9532 101.217 26.9973C101.12 28.0414 100.946 29.0855 100.695 30.1297C100.458 31.1738 100.138 32.1831 99.7346 33.1576C99.3308 34.1182 98.8227 34.9744 98.2101 35.7262C97.5976 36.4779 96.8667 37.0766 96.0175 37.5221C95.1822 37.9676 94.2077 38.1903 93.0939 38.1903ZM96.3516 22.5493C96.3516 21.4913 96.3029 20.5446 96.2054 19.7093C96.108 18.8601 95.9479 18.1431 95.7251 17.5584C95.5163 16.9737 95.2448 16.5282 94.9107 16.2219C94.5905 15.9017 94.2007 15.7416 93.7413 15.7416C93.2401 15.7416 92.7737 16.0062 92.3422 16.5352C91.9106 17.0642 91.5278 17.8299 91.1936 18.8323C90.8734 19.8346 90.6159 21.0597 90.421 22.5076C90.24 23.9415 90.1495 25.5634 90.1495 27.3732C90.1495 28.5426 90.2052 29.5937 90.3166 30.5264C90.4279 31.4453 90.595 32.2318 90.8178 32.8862C91.0405 33.5265 91.312 34.0208 91.6322 34.3688C91.9663 34.7029 92.3561 34.87 92.8016 34.87C93.2471 34.87 93.6438 34.689 93.9919 34.327C94.3399 33.9512 94.6392 33.45 94.8898 32.8235C95.1543 32.197 95.3771 31.4731 95.5581 30.6517C95.753 29.8164 95.9061 28.9463 96.0175 28.0414C96.1289 27.1226 96.2124 26.1898 96.2681 25.2432C96.3238 24.2965 96.3516 23.3986 96.3516 22.5493ZM119.824 14.4678C119.74 15.2892 119.67 16.1245 119.615 16.9737C119.559 17.809 119.503 18.6443 119.448 19.4796C119.406 20.3149 119.364 21.1293 119.322 21.9229C119.281 22.7025 119.246 23.4473 119.218 24.1573C119.148 25.814 119.093 27.4149 119.051 28.9602C118.967 30.603 118.919 32.2318 118.905 33.8467C118.905 35.4477 118.856 36.9722 118.758 38.42C118.661 39.8818 118.473 41.2322 118.195 42.4712C117.93 43.7242 117.492 44.8031 116.879 45.708C116.267 46.6268 115.438 47.3438 114.394 47.8589C113.364 48.374 112.034 48.6315 110.406 48.6315C109.18 48.6315 108.199 48.4506 107.461 48.0886C106.737 47.7405 106.18 47.309 105.79 46.7939C105.401 46.2927 105.143 45.7567 105.018 45.1859C104.906 44.6151 104.851 44.107 104.851 43.6615C104.851 43.1882 104.92 42.7427 105.06 42.325C105.213 41.9213 105.422 41.5663 105.686 41.26C105.951 40.9537 106.271 40.7101 106.647 40.5291C107.036 40.3482 107.475 40.2577 107.962 40.2577C108.477 40.2577 108.937 40.3551 109.341 40.55C109.744 40.7449 110.078 40.9955 110.343 41.3018C110.621 41.622 110.83 41.977 110.969 42.3668C111.109 42.7566 111.178 43.1464 111.178 43.5362C111.164 43.759 111.116 43.9887 111.032 44.2253C110.962 44.4202 110.837 44.636 110.656 44.8727C110.489 45.1233 110.252 45.3669 109.946 45.6036C110.113 45.6732 110.266 45.715 110.406 45.7289C110.559 45.7567 110.705 45.7706 110.844 45.7706C111.206 45.7706 111.582 45.6593 111.972 45.4365C112.375 45.2277 112.744 44.8936 113.078 44.4342C113.413 43.9747 113.691 43.397 113.914 42.7009C114.137 42.0048 114.262 41.1765 114.29 40.2159C114.29 39.1718 114.29 38.1485 114.29 37.1462C114.304 36.1438 114.324 35.037 114.352 33.8259C113.879 34.7308 113.371 35.4338 112.828 35.935C112.285 36.4223 111.77 36.7842 111.283 37.0209C110.726 37.2993 110.162 37.4664 109.591 37.5221C108.561 37.5221 107.663 37.2645 106.897 36.7494C106.132 36.2343 105.498 35.5034 104.997 34.5568C104.496 33.6101 104.12 32.4755 103.869 31.1529C103.633 29.8164 103.514 28.3268 103.514 26.6841C103.514 22.1317 103.828 17.7881 104.454 13.6534L109.758 14.2381C109.647 14.6975 109.535 15.1987 109.424 15.7416C109.327 16.2846 109.236 16.8484 109.153 17.4331C109.069 18.0178 108.992 18.6095 108.923 19.2081C108.867 19.7928 108.811 20.3567 108.756 20.8996C108.63 22.1804 108.526 23.4821 108.443 24.8046C108.443 26.1272 108.484 27.2827 108.568 28.2711C108.651 29.2456 108.798 30.0601 109.006 30.7144C109.229 31.3548 109.528 31.8351 109.904 32.1553C110.28 32.4755 110.761 32.6356 111.345 32.6356C111.763 32.566 112.167 32.2736 112.556 31.7585C112.723 31.5358 112.897 31.2573 113.078 30.9232C113.259 30.5891 113.44 30.1784 113.621 29.6911C113.802 29.2039 113.976 28.6331 114.143 27.9788C114.311 27.3105 114.464 26.5379 114.603 25.6608C114.645 24.5749 114.672 23.5865 114.686 22.6955C114.714 21.7906 114.728 20.9275 114.728 20.1061C114.728 19.1176 114.707 18.171 114.666 17.2661C114.624 16.3472 114.561 15.3866 114.478 14.3843L119.824 14.4678ZM128.009 5.30041C127.87 7.38866 127.752 9.28896 127.654 11.0013C127.557 12.6998 127.473 14.2938 127.404 15.7834C127.348 17.273 127.306 18.7 127.279 20.0643C127.251 21.4286 127.237 22.8138 127.237 24.2199C127.905 23.4821 128.525 22.6955 129.095 21.8602C129.666 21.011 130.181 20.1409 130.641 19.2499C131.114 18.345 131.525 17.4262 131.873 16.4934C132.235 15.5607 132.541 14.6418 132.792 13.7369L138.451 14.2381C137.81 15.5885 137.177 16.7858 136.55 17.8299C135.924 18.874 135.318 19.7928 134.734 20.5864C134.163 21.366 133.627 22.0273 133.126 22.5702C132.638 23.1132 132.2 23.5587 131.81 23.9067C132.395 24.1016 132.903 24.3313 133.334 24.5958C133.766 24.8603 134.121 25.1109 134.399 25.3476C134.734 25.626 135.012 25.9184 135.235 26.2246C135.499 26.6562 135.708 27.1504 135.861 27.7073C136.028 28.2502 136.168 28.828 136.279 29.4405C136.404 30.0531 136.523 30.6935 136.634 31.3617C136.759 32.0161 136.912 32.6773 137.093 33.3456C137.274 34.0138 137.511 34.6751 137.803 35.3294C138.096 35.9698 138.479 36.5824 138.952 37.1671H133.397C133.119 36.4571 132.889 35.7401 132.708 35.0162C132.541 34.2922 132.402 33.6379 132.29 33.0532C132.165 32.3711 132.075 31.7028 132.019 31.0485C131.894 30.1993 131.65 29.4405 131.288 28.7723C131.135 28.48 130.94 28.2015 130.703 27.937C130.481 27.6586 130.209 27.4149 129.889 27.2061C129.583 26.9834 129.228 26.8094 128.824 26.6841C128.42 26.5448 127.961 26.4752 127.446 26.4752H127.237C127.237 28.0484 127.244 29.7259 127.258 31.5079C127.286 33.2899 127.334 35.2946 127.404 37.5221L122.225 37.4176C122.35 35.4547 122.462 33.6658 122.559 32.0509C122.657 30.4359 122.733 28.9254 122.789 27.5194C122.858 26.0994 122.907 24.749 122.935 23.4682C122.977 22.1874 122.998 20.8927 122.998 19.584C122.998 18.5956 122.991 17.5793 122.977 16.5352C122.963 15.4771 122.935 14.3704 122.893 13.2149C122.865 12.0454 122.824 10.8064 122.768 9.49779C122.712 8.17523 122.65 6.74826 122.58 5.21688L128.009 5.30041ZM154.906 32.5103C154.906 33.3316 154.718 34.1043 154.342 34.8282C153.966 35.5521 153.458 36.1786 152.818 36.7076C152.177 37.2367 151.426 37.6543 150.562 37.9606C149.699 38.2669 148.781 38.42 147.806 38.42C147.152 38.42 146.49 38.3295 145.822 38.1485C145.154 37.9676 144.514 37.6682 143.901 37.2506C143.288 36.8329 142.711 36.283 142.168 35.6009C141.625 34.9187 141.151 34.0834 140.748 33.095C140.358 32.1065 140.045 30.951 139.808 29.6285C139.585 28.292 139.474 26.7606 139.474 25.0343C139.474 23.4055 139.585 21.9646 139.808 20.7117C140.045 19.4587 140.358 18.3659 140.748 17.4331C141.151 16.5004 141.618 15.7208 142.147 15.0943C142.676 14.4539 143.24 13.9388 143.838 13.549C144.451 13.1453 145.077 12.8599 145.718 12.6928C146.372 12.5257 147.012 12.4422 147.639 12.4422C148.572 12.4422 149.456 12.5954 150.291 12.9016C151.126 13.194 151.857 13.6325 152.484 14.2172C153.11 14.8019 153.604 15.5259 153.966 16.389C154.342 17.2382 154.53 18.2197 154.53 19.3334C154.53 20.3358 154.321 21.3521 153.904 22.3823C153.5 23.3986 152.894 24.3661 152.087 25.2849C151.279 26.1898 150.277 27.0182 149.08 27.7699C147.897 28.5078 146.532 29.0925 144.987 29.5241C145.07 30.3872 145.189 31.1738 145.342 31.8838C145.509 32.5938 145.711 33.1994 145.947 33.7006C146.198 34.2017 146.483 34.5916 146.804 34.87C147.138 35.1484 147.521 35.2876 147.952 35.2876C148.231 35.2737 148.495 35.225 148.746 35.1415C148.968 35.0719 149.191 34.9605 149.414 34.8073C149.651 34.6542 149.846 34.4315 149.999 34.1391C149.637 33.972 149.358 33.7563 149.163 33.4917C148.968 33.2272 148.822 32.9766 148.725 32.74C148.613 32.4615 148.551 32.1692 148.537 31.8629C148.537 31.1947 148.669 30.6517 148.934 30.2341C149.198 29.8164 149.511 29.4893 149.873 29.2526C150.235 29.0159 150.604 28.8558 150.98 28.7723C151.356 28.6749 151.655 28.6261 151.878 28.6261C152.115 28.6261 152.4 28.6749 152.734 28.7723C153.082 28.8698 153.416 29.0577 153.737 29.3361C154.057 29.6146 154.328 30.0113 154.551 30.5264C154.788 31.0276 154.906 31.6889 154.906 32.5103ZM149.748 19.3752C149.748 18.874 149.699 18.4007 149.602 17.9552C149.518 17.4958 149.386 17.099 149.205 16.7649C149.038 16.4308 148.822 16.1663 148.558 15.9714C148.307 15.7625 148.015 15.6581 147.681 15.6581C147.11 15.6581 146.644 15.9226 146.282 16.4517C145.92 16.9668 145.627 17.6559 145.405 18.519C145.182 19.3822 145.029 20.3776 144.945 21.5052C144.862 22.6329 144.82 23.8092 144.82 25.0343V26.5588C145.53 26.1829 146.184 25.7374 146.783 25.2223C147.395 24.7072 147.917 24.1434 148.349 23.5308C148.794 22.9043 149.136 22.2431 149.372 21.547C149.623 20.8509 149.748 20.127 149.748 19.3752ZM162.674 13.8622L162.549 15.5746C163.008 14.8089 163.496 14.2242 164.011 13.8205C164.54 13.4167 165.027 13.1313 165.473 12.9643C165.918 12.7972 166.287 12.7067 166.579 12.6928C166.886 12.6789 167.053 12.6719 167.081 12.6719C168.111 12.6719 169.009 12.9086 169.774 13.3819C170.54 13.8553 171.173 14.5444 171.675 15.4493C172.176 16.3403 172.545 17.4331 172.781 18.7278C173.032 20.0086 173.157 21.4634 173.157 23.0923C173.157 24.2895 173.136 25.5146 173.095 26.7676C173.067 28.0066 172.997 29.2456 172.886 30.4847C172.788 31.7098 172.649 32.907 172.468 34.0765C172.301 35.2459 172.071 36.3596 171.779 37.4176L166.913 36.8329C167.234 35.1763 167.484 33.631 167.665 32.197C167.846 30.7631 167.978 29.5102 168.062 28.4382C168.159 27.1852 168.215 26.0367 168.229 24.9926C168.229 23.67 168.187 22.5215 168.104 21.547C168.02 20.5585 167.867 19.7441 167.644 19.1037C167.436 18.4494 167.143 17.9621 166.767 17.642C166.391 17.3218 165.911 17.1617 165.326 17.1617C164.937 17.2452 164.547 17.5236 164.157 17.997C163.823 18.4007 163.468 19.048 163.092 19.939C162.716 20.8161 162.389 22.0551 162.111 23.6561C162.069 24.742 162.041 25.8209 162.027 26.8929C162.027 27.9509 162.027 29.0786 162.027 30.2758C162.027 31.2921 162.027 32.385 162.027 33.5544C162.027 34.7238 162.041 36.0464 162.069 37.5221L157.328 37.4176C157.37 35.9976 157.398 34.4941 157.412 32.907C157.44 31.306 157.454 29.531 157.454 27.582C157.454 25.6469 157.44 23.5517 157.412 21.2964C157.384 19.0411 157.328 16.5352 157.245 13.7787L162.674 13.8622Z" fill="#66B8EC"/>
</svg>
