<svg width="22" height="22" viewBox="0 0 22 22" fill="none" xmlns="http://www.w3.org/2000/svg">
<path d="M1.93713 4.76709C1.22778 5.79668 0.688695 6.95274 0.361816 8.19527H5.36551L1.93713 4.76709Z" fill="#29337A"/>
<path d="M7.91955 0.44043C6.65216 0.809527 5.47841 1.39849 4.44482 2.16669L7.91955 5.64142V0.44043Z" fill="#29337A"/>
<path d="M4.70264 20.0171C5.67213 20.6955 6.75527 21.2207 7.91894 21.5595V16.8013L4.70264 20.0171Z" fill="#29337A"/>
<path d="M0.488281 14.248C0.851991 15.4262 1.40933 16.5192 2.12161 17.4914L5.36499 14.248H0.488281Z" fill="#29337A"/>
<path d="M2.11829 4.51221C2.0568 4.59627 1.99619 4.68155 1.93679 4.7677L5.36516 8.19589H0.361471C0.280378 8.50452 0.214194 8.81909 0.159668 9.13798H6.74443L2.11829 4.51221Z" fill="white"/>
<path d="M4.44775 19.8357C4.53145 19.8981 4.61746 19.9575 4.70288 20.0172L7.91918 16.8013V21.5596C8.22818 21.6499 8.54201 21.7279 8.86127 21.7906V15.4224L4.44775 19.8357Z" fill="white"/>
<path d="M0.243652 13.3062C0.311926 13.6254 0.392508 13.9398 0.487859 14.2482H5.36461L2.12123 17.4916C2.47398 17.9736 2.86514 18.4259 3.29016 18.8441L8.82805 13.3062H0.243652Z" fill="white"/>
<path d="M7.91901 0.440489V5.64148L4.44424 2.16694C3.96521 2.52317 3.51743 2.91865 3.10254 3.34678L8.86091 9.10515V0.209473C8.54183 0.272545 8.22801 0.350711 7.91901 0.440489Z" fill="white"/>
<path d="M7.91974 14.2148L7.88672 14.2481H7.91974V14.2148Z" fill="#D32030"/>
<path d="M8.8291 13.3061H8.86208V13.2729L8.8291 13.3061Z" fill="#D32030"/>
<path d="M13.062 9.1377H13.0303V9.16965L13.062 9.1377Z" fill="#D32030"/>
<path d="M7.95239 8.19574L7.91992 8.16309V8.19574H7.95239Z" fill="#D32030"/>
<path d="M8.86182 9.10498V9.13749H8.89433L8.86182 9.10498Z" fill="#D32030"/>
<path d="M13.9717 19.1245V21.5903C15.1505 21.2603 16.2496 20.7401 17.2326 20.0624L14.5608 17.3906C14.3473 18.1408 14.2692 18.5286 13.9717 19.1245Z" fill="#252F6C"/>
<path d="M14.5749 5.03804L17.4916 2.12135C16.4438 1.35398 15.255 0.769198 13.9717 0.409668V2.94268C14.3147 3.6296 14.3436 4.15154 14.5749 5.03804Z" fill="#252F6C"/>
<path d="M19.8329 17.5555C20.5674 16.5674 21.1399 15.452 21.5117 14.248H16.5254L19.8329 17.5555Z" fill="#252F6C"/>
<path d="M21.6379 8.19541C21.3041 6.92663 20.7488 5.74888 20.0171 4.70312L16.5244 8.19541H21.6379Z" fill="#252F6C"/>
<path d="M15.2173 13.4923L15.9732 14.2482L19.5914 17.8664C19.6735 17.7636 19.7551 17.6611 19.8337 17.5557L16.5262 14.2482H21.5125C21.6075 13.9399 21.6883 13.6254 21.7563 13.3062H15.288C15.2774 13.4397 15.23 13.3597 15.2173 13.4923Z" fill="#E7E7E7"/>
<path d="M14.4606 5.5899L17.74 2.31019C17.6578 2.24647 17.5755 2.18308 17.4916 2.12158L14.5749 5.03827C14.6051 5.15359 14.4325 5.47179 14.4606 5.5899Z" fill="#E7E7E7"/>
<path d="M13.9719 2.74V0.409486C13.6632 0.323006 13.349 0.249716 13.0298 0.189941V1.32673C13.3803 1.70674 13.6945 2.18405 13.9719 2.74Z" fill="#E7E7E7"/>
<path d="M15.1427 9.13732H21.8398C21.7854 8.81843 21.7191 8.50405 21.638 8.19524H16.5245L20.0172 4.70296C19.6738 4.21245 19.2922 3.75116 18.8754 3.32373L14.9414 7.25733C15.0473 7.97086 15.0948 8.38524 15.1427 9.13732Z" fill="#E7E7E7"/>
<path d="M14.4019 17.2313L17.2328 20.0625C17.7036 19.7383 18.147 19.3773 18.5608 18.9855L14.8371 15.2617C14.7183 15.9504 14.5773 16.6156 14.4019 17.2313Z" fill="#E7E7E7"/>
<path d="M13.0303 20.5428V21.8099C13.3495 21.7505 13.6635 21.6768 13.9724 21.5903V19.1245C13.6948 19.6807 13.3806 20.1633 13.0303 20.5428Z" fill="#E7E7E7"/>
<path d="M14.9416 7.25764L18.8752 3.32404C18.5211 2.96033 18.1414 2.62184 17.7398 2.31006L14.6489 5.40147C14.7863 5.97567 14.8487 6.63291 14.9416 7.25764Z" fill="#D71F28"/>
<path d="M10.4507 0.0135619C10.634 0.00469093 10.8167 0 10.9995 0C10.8156 0 10.6326 0.00469093 10.4507 0.0135619Z" fill="#D32030"/>
<path d="M10.9997 22.0002C10.8168 22.0002 10.6341 21.9952 10.4512 21.9863C10.6331 21.9955 10.8158 22.0002 10.9997 22.0002Z" fill="#D32030"/>
<path d="M10.9995 21.9999C11.6935 21.9999 12.3713 21.9327 13.0295 21.8095V20.5425C12.4517 21.1688 11.7757 21.9999 10.9995 21.9999Z" fill="#D32030"/>
<path d="M21.8395 9.13721H15.2294C15.3169 10.5168 15.3063 11.9355 15.1978 13.3056H21.7558C21.9145 12.5617 21.9996 11.7909 21.9996 11C21.9996 10.3646 21.943 9.74317 21.8395 9.13721Z" fill="#D71F28"/>
<path d="M15.2169 13.4922C15.1558 14.1421 14.9429 14.6486 14.8369 15.2617L18.5605 18.9853C18.9289 18.6362 19.2733 18.2628 19.5908 17.8663L15.9728 14.2479L15.2169 13.4922Z" fill="#D71F28"/>
<path d="M13.0296 1.40839V0.190006C12.3715 0.0672057 11.6938 0 10.9995 0C11.7757 0 12.4517 0.782271 13.0296 1.40839Z" fill="#D32030"/>
<path d="M13.9717 19.5999C14.2692 19.0038 14.5243 18.3176 14.738 17.5676L13.9717 16.8013V19.5999Z" fill="#29337A"/>
<path d="M14.8333 4.77923C14.6016 3.89273 14.3147 3.08682 13.9717 2.3999V5.6405L14.8333 4.77923Z" fill="#29337A"/>
<path d="M15.4309 13.7058C15.4434 13.5731 15.4547 13.4399 15.4655 13.3062H15.0312L15.4309 13.7058Z" fill="white"/>
<path d="M13.9719 5.64087V2.40009C13.6943 1.84414 13.3803 1.3665 13.0298 0.986816V7.02028L14.9217 5.12835C14.8932 5.01024 14.8633 4.89455 14.8335 4.77922L13.9719 5.64087Z" fill="white"/>
<path d="M13.0615 9.13742H15.4966C15.4488 8.38539 15.3728 7.64548 15.267 6.93213L13.0615 9.13742Z" fill="white"/>
<path d="M13.0303 21.013C13.3808 20.633 13.6948 20.1557 13.9724 19.5998V16.8012L14.7387 17.5675C14.9144 16.9514 15.0619 16.2933 15.181 15.6047L13.0303 13.4541L13.0303 21.013Z" fill="white"/>
<path d="M13.0299 21.0131V13.4542L15.1805 15.6049C15.2862 14.9916 15.3694 14.3556 15.4304 13.7055L15.0307 13.3058H15.4649C15.5735 11.9356 15.5841 10.517 15.4966 9.13742H13.0615L15.2668 6.93213C15.1739 6.30721 15.0589 5.70278 14.9215 5.1284L13.0299 7.02033V0.98686C12.452 0.360551 11.776 0 10.9998 0C10.8169 0 10.6342 0.00469093 10.451 0.0135619C9.90994 0.0406393 9.37935 0.107195 8.8614 0.209327V9.10496L3.10289 3.34658C2.74907 3.71169 2.41996 4.10071 2.11877 4.51184L5.80245 8.19552L6.74486 9.13761H0.160142C0.0569878 9.74339 0 10.3648 0 11.0002C0 11.7913 0.0854585 12.5619 0.243836 13.3058H8.82842L3.29048 18.8438C3.65312 19.2 4.03922 19.5318 4.44793 19.8353L8.86126 15.422V21.7903C9.37917 21.8925 9.91012 21.959 10.4512 21.9861C10.6341 21.995 10.8168 22 10.9997 22C11.776 22 12.452 21.6395 13.0299 21.0131Z" fill="#E51D35"/>
<rect x="0.5" y="0.5" width="21" height="21" rx="10.5" stroke="#333333"/>
</svg>
